<svg width="34" height="35" viewBox="0 0 34 35" fill="none" xmlns="http://www.w3.org/2000/svg">
<path d="M12 18.81C12.0013 18.7085 11.9823 18.6078 11.9441 18.5137C11.9059 18.4197 11.8492 18.3343 11.7775 18.2625C11.7057 18.1907 11.6203 18.1341 11.5262 18.0959C11.4322 18.0576 11.3315 18.0386 11.23 18.04H8.57C8.46851 18.0386 8.36778 18.0576 8.27375 18.0959C8.17972 18.1341 8.0943 18.1907 8.02253 18.2625C7.95076 18.3343 7.8941 18.4197 7.85587 18.5137C7.81765 18.6078 7.79866 18.7085 7.8 18.81V21.51C7.79866 21.6115 7.81765 21.7122 7.85587 21.8062C7.8941 21.9003 7.95076 21.9857 8.02253 22.0575C8.0943 22.1292 8.17972 22.1859 8.27375 22.2241C8.36778 22.2623 8.46851 22.2813 8.57 22.28H11.27C11.3715 22.2813 11.4722 22.2623 11.5663 22.2241C11.6603 22.1859 11.7457 22.1292 11.8175 22.0575C11.8892 21.9857 11.9459 21.9003 11.9841 21.8062C12.0223 21.7122 12.0413 21.6115 12.04 21.51V18.81H12Z" fill="#4D4D4D"/>
<path d="M18.79 18.81C18.7971 18.7035 18.7817 18.5967 18.7448 18.4965C18.7079 18.3964 18.6503 18.3051 18.5758 18.2287C18.5012 18.1523 18.4114 18.0924 18.3122 18.053C18.213 18.0136 18.1067 17.9955 18 18H15.3C15.1985 17.9986 15.0978 18.0176 15.0038 18.0559C14.9097 18.0941 14.8243 18.1508 14.7525 18.2225C14.6808 18.2943 14.6241 18.3797 14.5859 18.4737C14.5477 18.5678 14.5287 18.6685 14.53 18.77V21.47C14.5287 21.5715 14.5477 21.6722 14.5859 21.7662C14.6241 21.8603 14.6808 21.9457 14.7525 22.0175C14.8243 22.0892 14.9097 22.1459 15.0038 22.1841C15.0978 22.2223 15.1985 22.2413 15.3 22.24H18C18.1015 22.2413 18.2022 22.2223 18.2963 22.1841C18.3903 22.1459 18.4757 22.0892 18.5475 22.0175C18.6192 21.9457 18.6759 21.8603 18.7141 21.7662C18.7523 21.6722 18.7713 21.5715 18.77 21.47L18.79 18.81Z" fill="#4D4D4D"/>
<path d="M25.54 18.81C25.5413 18.7085 25.5223 18.6078 25.4841 18.5137C25.4459 18.4197 25.3892 18.3343 25.3175 18.2625C25.2457 18.1907 25.1603 18.1341 25.0662 18.0959C24.9722 18.0576 24.8715 18.0386 24.77 18.04H22.07C21.968 18.0387 21.8668 18.0576 21.7723 18.0957C21.6777 18.1338 21.5916 18.1903 21.5191 18.2619C21.4465 18.3336 21.3889 18.4189 21.3496 18.513C21.3102 18.6071 21.29 18.708 21.29 18.81V21.51C21.29 21.6119 21.3102 21.7129 21.3496 21.807C21.3889 21.9011 21.4465 21.9864 21.5191 22.058C21.5916 22.1297 21.6777 22.1862 21.7723 22.2243C21.8668 22.2624 21.968 22.2813 22.07 22.28H24.77C24.8715 22.2813 24.9722 22.2623 25.0662 22.2241C25.1603 22.1859 25.2457 22.1292 25.3175 22.0575C25.3892 21.9857 25.4459 21.9003 25.4841 21.8062C25.5223 21.7122 25.5413 21.6115 25.54 21.51V18.81Z" fill="#4D4D4D"/>
<path d="M12 25.56C12.0013 25.4585 11.9823 25.3578 11.9441 25.2637C11.9059 25.1697 11.8492 25.0843 11.7775 25.0125C11.7057 24.9407 11.6203 24.8841 11.5262 24.8459C11.4322 24.8076 11.3315 24.7886 11.23 24.79H8.57C8.46851 24.7886 8.36778 24.8076 8.27375 24.8459C8.17972 24.8841 8.0943 24.9407 8.02253 25.0125C7.95076 25.0843 7.8941 25.1697 7.85587 25.2637C7.81765 25.3578 7.79866 25.4585 7.8 25.56V28.26C7.79866 28.3615 7.81765 28.4622 7.85587 28.5562C7.8941 28.6503 7.95076 28.7357 8.02253 28.8075C8.0943 28.8792 8.17972 28.9359 8.27375 28.9741C8.36778 29.0123 8.46851 29.0313 8.57 29.03H11.27C11.3715 29.0313 11.4722 29.0123 11.5663 28.9741C11.6603 28.9359 11.7457 28.8792 11.8175 28.8075C11.8892 28.7357 11.9459 28.6503 11.9841 28.5562C12.0223 28.4622 12.0413 28.3615 12.04 28.26V25.56H12Z" fill="#4D4D4D"/>
<path d="M18.79 25.56C18.7913 25.4585 18.7723 25.3578 18.7341 25.2637C18.6959 25.1697 18.6392 25.0843 18.5675 25.0125C18.4957 24.9407 18.4103 24.8841 18.3163 24.8459C18.2222 24.8076 18.1215 24.7886 18.02 24.79H15.32C15.2185 24.7886 15.1178 24.8076 15.0238 24.8459C14.9297 24.8841 14.8443 24.9407 14.7725 25.0125C14.7008 25.0843 14.6441 25.1697 14.6059 25.2637C14.5677 25.3578 14.5487 25.4585 14.55 25.56V28.26C14.5487 28.3615 14.5677 28.4622 14.6059 28.5562C14.6441 28.6503 14.7008 28.7357 14.7725 28.8075C14.8443 28.8792 14.9297 28.9359 15.0238 28.9741C15.1178 29.0123 15.2185 29.0313 15.32 29.03H18C18.1015 29.0313 18.2022 29.0123 18.2963 28.9741C18.3903 28.9359 18.4757 28.8792 18.5475 28.8075C18.6192 28.7357 18.6759 28.6503 18.7141 28.5562C18.7523 28.4622 18.7713 28.3615 18.77 28.26L18.79 25.56Z" fill="#4D4D4D"/>
<path d="M25.54 25.56C25.5413 25.4585 25.5223 25.3578 25.4841 25.2637C25.4459 25.1697 25.3892 25.0843 25.3175 25.0125C25.2457 24.9407 25.1603 24.8841 25.0662 24.8459C24.9722 24.8076 24.8715 24.7886 24.77 24.79H22.07C21.968 24.7887 21.8668 24.8076 21.7723 24.8457C21.6777 24.8838 21.5916 24.9403 21.5191 25.0119C21.4465 25.0836 21.3889 25.1689 21.3496 25.263C21.3102 25.3571 21.29 25.458 21.29 25.56V28.26C21.29 28.3619 21.3102 28.4629 21.3496 28.557C21.3889 28.6511 21.4465 28.7364 21.5191 28.808C21.5916 28.8797 21.6777 28.9362 21.7723 28.9743C21.8668 29.0124 21.968 29.0313 22.07 29.03H24.77C24.8715 29.0313 24.9722 29.0123 25.0662 28.9741C25.1603 28.9359 25.2457 28.8792 25.3175 28.8075C25.3892 28.7357 25.4459 28.6503 25.4841 28.5562C25.5223 28.4622 25.5413 28.3615 25.54 28.26V25.56Z" fill="#4D4D4D"/>
<path d="M30.37 3.80003V7.92003C30.37 8.81381 30.0149 9.67098 29.3829 10.303C28.751 10.935 27.8938 11.29 27 11.29H24.87C23.9726 11.2927 23.1108 10.9394 22.4735 10.3077C21.8362 9.67602 21.4753 8.81738 21.47 7.92003V3.78003H11.87V7.92003C11.8647 8.81738 11.5038 9.67602 10.8665 10.3077C10.2292 10.9394 9.36736 11.2927 8.47 11.29H6.34C5.45143 11.2821 4.60194 10.9236 3.97642 10.2924C3.3509 9.66129 2.99996 8.80864 3 7.92003V3.80003C2.20143 3.81823 1.44139 4.14696 0.881256 4.71643C0.321121 5.2859 0.00499646 6.05127 0 6.85003L0 31C-4.31028e-06 31.8125 0.322068 32.5919 0.895644 33.1673C1.46922 33.7428 2.24752 34.0674 3.06 34.07H30.28C31.0925 34.0674 31.8708 33.7428 32.4444 33.1673C33.0179 32.5919 33.34 31.8125 33.34 31V6.85003C33.3353 6.05631 33.0233 5.29528 32.4695 4.72662C31.9158 4.15796 31.1633 3.82587 30.37 3.80003ZM29.37 29.51C29.37 29.861 29.2313 30.1978 28.984 30.447C28.7367 30.6961 28.401 30.8374 28.05 30.84H5.22C4.869 30.8374 4.53327 30.6961 4.28601 30.447C4.03874 30.1978 3.89999 29.861 3.9 29.51V17C3.9 16.6499 4.03907 16.3142 4.28662 16.0666C4.53417 15.8191 4.86991 15.68 5.22 15.68H28.06C28.4101 15.68 28.7458 15.8191 28.9934 16.0666C29.2409 16.3142 29.38 16.6499 29.38 17V29.51H29.37Z" fill="#4D4D4D"/>
<path d="M6.34 9.08H8.44C8.59233 9.08 8.74318 9.05 8.88391 8.9917C9.02465 8.9334 9.15253 8.84796 9.26024 8.74024C9.36796 8.63253 9.45341 8.50465 9.5117 8.36391C9.57 8.22318 9.6 8.07233 9.6 7.92V1.16C9.6 1.00767 9.57 0.856825 9.5117 0.716087C9.45341 0.57535 9.36796 0.447472 9.26024 0.339756C9.15253 0.23204 9.02465 0.146595 8.88391 0.0882997C8.74318 0.0300043 8.59233 0 8.44 0L6.34 0C6.03235 0 5.7373 0.122214 5.51976 0.339756C5.30221 0.557298 5.18 0.852349 5.18 1.16V7.92C5.18 8.22765 5.30221 8.5227 5.51976 8.74024C5.7373 8.95779 6.03235 9.08 6.34 9.08Z" fill="#4D4D4D"/>
<path d="M24.84 9.08H26.94C27.2477 9.08 27.5427 8.95779 27.7602 8.74024C27.9778 8.5227 28.1 8.22765 28.1 7.92V1.16C28.1 0.852349 27.9778 0.557298 27.7602 0.339756C27.5427 0.122214 27.2477 0 26.94 0L24.84 0C24.5323 0 24.2373 0.122214 24.0198 0.339756C23.8022 0.557298 23.68 0.852349 23.68 1.16V7.92C23.68 8.22765 23.8022 8.5227 24.0198 8.74024C24.2373 8.95779 24.5323 9.08 24.84 9.08Z" fill="#4D4D4D"/>
</svg>
