<svg xmlns="http://www.w3.org/2000/svg" viewBox="0 0 174.7 44.86"><defs><style>.cls-1{fill:#a3a3a3;}.cls-2,.cls-5{fill:#fff;}.cls-3{fill:#494949;}.cls-4,.cls-6{fill:#7c5ead;}.cls-5{stroke:#a3a3a3;stroke-width:0.25px;}.cls-5,.cls-6{stroke-miterlimit:10;}.cls-6{stroke:#fff;}</style></defs><title>Fichier 7</title><g id="Calque_2" data-name="Calque 2"><g id="Calque_1-2" data-name="Calque 1"><path class="cls-1" d="M61.84,34.32a12.84,12.84,0,0,1-4.8-.84,10.15,10.15,0,0,1-3.53-2.28,9.84,9.84,0,0,1-2.17-3.32,10.5,10.5,0,0,1-.74-3.95,12.29,12.29,0,0,1,.72-4.21,9.75,9.75,0,0,1,2.15-3.48A10.58,10.58,0,0,1,57,13.88a13.81,13.81,0,0,1,9.7,0,10.57,10.57,0,0,1,3.53,2.34,9.69,9.69,0,0,1,2.15,3.4,11.5,11.5,0,0,1,.72,4c0,.39,0,.79-.06,1.19s-.08.76-.13,1.08H58.48a2.89,2.89,0,0,0,1.21,2.36,4.26,4.26,0,0,0,2.38.72,4.93,4.93,0,0,0,2.29-.55,2.73,2.73,0,0,0,1.42-1.52l6.29,1.8a9.89,9.89,0,0,1-3.85,4A12.19,12.19,0,0,1,61.84,34.32Zm3.28-12.84A3.89,3.89,0,0,0,64,19.13a3.52,3.52,0,0,0-4.61,0,3.84,3.84,0,0,0-1.09,2.35Z"/><path class="cls-1" d="M84,34.32a16.15,16.15,0,0,1-5.27-.88,12.08,12.08,0,0,1-4.37-2.56l2.54-4.45a18.67,18.67,0,0,0,3.69,2,8.9,8.9,0,0,0,3.26.71c1,0,1.56-.33,1.56-1a1.14,1.14,0,0,0-.6-.94,10.13,10.13,0,0,0-2.37-.89,37.44,37.44,0,0,1-3.65-1.23,10.85,10.85,0,0,1-2.38-1.31,4.21,4.21,0,0,1-1.31-1.56,4.87,4.87,0,0,1-.39-2,6.64,6.64,0,0,1,.63-2.89A6.74,6.74,0,0,1,77.05,15a7.74,7.74,0,0,1,2.65-1.51A10.42,10.42,0,0,1,83.08,13a15.63,15.63,0,0,1,4.31.58,11.06,11.06,0,0,1,4.12,2.38L88.7,20.38a20.3,20.3,0,0,0-3.2-1.77,6.28,6.28,0,0,0-2.42-.53,2.13,2.13,0,0,0-1.1.25.88.88,0,0,0-.43.8,1.1,1.1,0,0,0,.63,1,10.29,10.29,0,0,0,2.46.84,28.47,28.47,0,0,1,3.75,1.23,10.33,10.33,0,0,1,2.44,1.4,4.39,4.39,0,0,1,1.3,1.72,5.81,5.81,0,0,1,.39,2.21,6.66,6.66,0,0,1-.58,2.85,6,6,0,0,1-1.7,2.14,7.68,7.68,0,0,1-2.69,1.37A12.72,12.72,0,0,1,84,34.32Z"/><path class="cls-1" d="M93.93,23.66a11.3,11.3,0,0,1,.74-4,9.88,9.88,0,0,1,2.17-3.4,10.67,10.67,0,0,1,3.53-2.34,12.62,12.62,0,0,1,4.84-.88,11.71,11.71,0,0,1,6.27,1.57,10,10,0,0,1,3.76,4L108,20.77a3.3,3.3,0,0,0-2.85-1.52,3.34,3.34,0,0,0-2.57,1.15,4.64,4.64,0,0,0-1.06,3.26,4.62,4.62,0,0,0,1.06,3.26,3.34,3.34,0,0,0,2.57,1.15A3.28,3.28,0,0,0,108,26.55l7.22,2.19a10,10,0,0,1-3.76,4,11.71,11.71,0,0,1-6.27,1.56,12.44,12.44,0,0,1-4.84-.88,10.67,10.67,0,0,1-3.53-2.34,9.88,9.88,0,0,1-2.17-3.4A11.26,11.26,0,0,1,93.93,23.66Z"/><path class="cls-1" d="M123.64,34.32a7.84,7.84,0,0,1-2.85-.51,7.18,7.18,0,0,1-2.29-1.38,6.67,6.67,0,0,1-1.5-2.09,6.37,6.37,0,0,1-.55-2.62,6,6,0,0,1,.67-2.85A6.73,6.73,0,0,1,119,22.65a8.4,8.4,0,0,1,2.79-1.45,11.87,11.87,0,0,1,3.58-.5,9.6,9.6,0,0,1,4.13.78v-.63a2.65,2.65,0,0,0-.84-2.15,4.25,4.25,0,0,0-2.71-.7,9,9,0,0,0-3.24.57,15.89,15.89,0,0,0-3.12,1.66l-2.15-4.61A16.75,16.75,0,0,1,126.64,13q4.92,0,7.58,2.19c1.77,1.46,2.65,3.64,2.65,6.56v4a2.49,2.49,0,0,0,.31,1.46,1.48,1.48,0,0,0,1.1.49v6.25c-.6.13-1.17.23-1.7.29a11.11,11.11,0,0,1-1.43.1,5.28,5.28,0,0,1-3-.72,3.37,3.37,0,0,1-1.35-2.13l-.16-.74a9.39,9.39,0,0,1-3.16,2.67A8.28,8.28,0,0,1,123.64,34.32ZM125.86,29a4.81,4.81,0,0,0,1.37-.21,5.52,5.52,0,0,0,1.25-.57,3.49,3.49,0,0,0,.7-.68,1.29,1.29,0,0,0,.27-.77V25.26a12.46,12.46,0,0,0-1.44-.39,7.53,7.53,0,0,0-1.41-.15,3.71,3.71,0,0,0-2.26.66,2,2,0,0,0-.9,1.68,1.7,1.7,0,0,0,.69,1.4A2.64,2.64,0,0,0,125.86,29Z"/><path class="cls-1" d="M141,11.68V5.43h7.42v6.25Zm0,22.25V13.4h7.42V33.93Z"/><path class="cls-1" d="M166,34.32a8,8,0,0,1-3.86-.88,6.15,6.15,0,0,1-2.54-2.56V42.24h-7.42V13.4h6.45v3.08a7.61,7.61,0,0,1,2.69-2.58,7.94,7.94,0,0,1,3.94-.9,9.07,9.07,0,0,1,3.79.8A8.93,8.93,0,0,1,172,16a10.55,10.55,0,0,1,2,3.36,12,12,0,0,1,.72,4.21,13.15,13.15,0,0,1-.67,4.28,10.81,10.81,0,0,1-1.83,3.41,8.29,8.29,0,0,1-2.77,2.25A7.74,7.74,0,0,1,166,34.32Zm-2.57-6.25a3.19,3.19,0,0,0,1.5-.35,3.52,3.52,0,0,0,1.17-1,4.92,4.92,0,0,0,.78-1.45,5,5,0,0,0,.3-1.76A4.35,4.35,0,0,0,166,20.42a3.87,3.87,0,0,0-2.95-1.17,4.18,4.18,0,0,0-3.51,2.11v3.55a5.82,5.82,0,0,0,1.6,2.27A3.43,3.43,0,0,0,163.38,28.07Z"/><path class="cls-2" d="M60,32.94a12.92,12.92,0,0,1-4.8-.84,10.13,10.13,0,0,1-3.53-2.29,10,10,0,0,1-2.17-3.31,10.74,10.74,0,0,1-.74-3.95,12.25,12.25,0,0,1,.72-4.21,9.75,9.75,0,0,1,2.15-3.48,10.43,10.43,0,0,1,3.51-2.36,13.81,13.81,0,0,1,9.7,0,10.62,10.62,0,0,1,3.54,2.34,9.66,9.66,0,0,1,2.14,3.4,11.25,11.25,0,0,1,.73,4c0,.39,0,.79-.06,1.19s-.09.76-.14,1.07H56.66a2.88,2.88,0,0,0,1.21,2.37,4.22,4.22,0,0,0,2.38.72,4.92,4.92,0,0,0,2.28-.55A2.75,2.75,0,0,0,64,25.56l6.28,1.79a10,10,0,0,1-3.84,4A12.23,12.23,0,0,1,60,32.94Zm3.28-12.85a3.78,3.78,0,0,0-1.09-2.34,3.52,3.52,0,0,0-4.61,0,3.78,3.78,0,0,0-1.09,2.34Z"/><path class="cls-2" d="M82.15,32.94a16.32,16.32,0,0,1-5.27-.88A12,12,0,0,1,72.5,29.5L75,25.05a19.82,19.82,0,0,0,3.69,2,8.92,8.92,0,0,0,3.26.7c1,0,1.56-.32,1.56-1a1.11,1.11,0,0,0-.6-.94,10.37,10.37,0,0,0-2.36-.9,31.37,31.37,0,0,1-3.65-1.23,11,11,0,0,1-2.39-1.3,4.13,4.13,0,0,1-1.3-1.57,4.84,4.84,0,0,1-.39-2,6.59,6.59,0,0,1,.62-2.88,7,7,0,0,1,1.74-2.31,7.72,7.72,0,0,1,2.65-1.5,10.46,10.46,0,0,1,3.38-.53,15.58,15.58,0,0,1,4.31.59,10.92,10.92,0,0,1,4.12,2.38L86.87,19a20.87,20.87,0,0,0-3.2-1.78,6.44,6.44,0,0,0-2.42-.52,2.09,2.09,0,0,0-1.09.25.86.86,0,0,0-.43.8,1.09,1.09,0,0,0,.62,1,11.16,11.16,0,0,0,2.46.84,28.47,28.47,0,0,1,3.75,1.23A9.81,9.81,0,0,1,89,22.18a4.42,4.42,0,0,1,1.31,1.72,5.8,5.8,0,0,1,.39,2.2A6.71,6.71,0,0,1,90.11,29a6,6,0,0,1-1.7,2.14,7.68,7.68,0,0,1-2.69,1.37A12.65,12.65,0,0,1,82.15,32.94Z"/><path class="cls-2" d="M92.1,22.28a11.26,11.26,0,0,1,.74-4A10,10,0,0,1,95,14.84a10.67,10.67,0,0,1,3.53-2.34,12.44,12.44,0,0,1,4.84-.88,11.71,11.71,0,0,1,6.27,1.56,10.08,10.08,0,0,1,3.77,4l-7.23,2.19a3.3,3.3,0,0,0-2.85-1.52A3.34,3.34,0,0,0,100.77,19a4.62,4.62,0,0,0-1.06,3.26,4.64,4.64,0,0,0,1.06,3.26,3.34,3.34,0,0,0,2.57,1.15,3.3,3.3,0,0,0,2.85-1.52l7.23,2.18a10.17,10.17,0,0,1-3.77,4,11.71,11.71,0,0,1-6.27,1.56,12.62,12.62,0,0,1-4.84-.88A10.67,10.67,0,0,1,95,29.72a10,10,0,0,1-2.17-3.4A11.3,11.3,0,0,1,92.1,22.28Z"/><path class="cls-2" d="M121.81,32.94a7.84,7.84,0,0,1-2.85-.51A6.88,6.88,0,0,1,116.68,31a6.22,6.22,0,0,1-2.05-4.7,6.16,6.16,0,0,1,.66-2.85,6.86,6.86,0,0,1,1.83-2.23,8.72,8.72,0,0,1,2.8-1.44,11.84,11.84,0,0,1,3.57-.51,9.68,9.68,0,0,1,4.14.78v-.62a2.65,2.65,0,0,0-.84-2.15,4.22,4.22,0,0,0-2.72-.7,9.19,9.19,0,0,0-3.24.56,16.45,16.45,0,0,0-3.12,1.66l-2.15-4.6a16.68,16.68,0,0,1,9.26-2.62c3.27,0,5.8.73,7.57,2.19S135,17.45,135,20.37v4a2.48,2.48,0,0,0,.32,1.46,1.44,1.44,0,0,0,1.09.49v6.25c-.6.13-1.17.22-1.7.29a13.09,13.09,0,0,1-1.42.1,5.21,5.21,0,0,1-3-.73A3.37,3.37,0,0,1,129,30.09l-.15-.74A9.48,9.48,0,0,1,125.64,32,8.35,8.35,0,0,1,121.81,32.94ZM124,27.63a4.45,4.45,0,0,0,1.37-.22,5.1,5.1,0,0,0,1.25-.56,3.06,3.06,0,0,0,.7-.69,1.27,1.27,0,0,0,.28-.76V23.88a9.88,9.88,0,0,0-1.45-.39,7.6,7.6,0,0,0-1.4-.16,3.66,3.66,0,0,0-2.27.67,2,2,0,0,0-.9,1.68,1.7,1.7,0,0,0,.69,1.4A2.64,2.64,0,0,0,124,27.63Z"/><path class="cls-2" d="M139.14,10.29V4.05h7.42v6.24Zm0,22.26V12h7.42V32.55Z"/><path class="cls-2" d="M164.13,32.94a8.13,8.13,0,0,1-3.87-.88,6.15,6.15,0,0,1-2.54-2.56V40.86h-7.41V12h6.44V15.1a7.69,7.69,0,0,1,2.69-2.58,7.94,7.94,0,0,1,3.94-.9,9,9,0,0,1,6.8,3,10.32,10.32,0,0,1,2,3.36,12,12,0,0,1,.72,4.21,13.43,13.43,0,0,1-.66,4.28,11,11,0,0,1-1.84,3.41,8.44,8.44,0,0,1-2.77,2.25A7.69,7.69,0,0,1,164.13,32.94Zm-2.58-6.25a3.25,3.25,0,0,0,1.5-.35,3.45,3.45,0,0,0,1.17-1,4.74,4.74,0,0,0,.78-1.44,5.08,5.08,0,0,0,.3-1.76A4.31,4.31,0,0,0,164.18,19a3.86,3.86,0,0,0-2.94-1.17A4.2,4.2,0,0,0,157.72,20v3.55a5.78,5.78,0,0,0,1.6,2.26A3.41,3.41,0,0,0,161.55,26.69Z"/><path class="cls-3" d="M59.86,31.81A12.8,12.8,0,0,1,55.12,31a10.23,10.23,0,0,1-3.48-2.26,9.71,9.71,0,0,1-2.14-3.27,10.42,10.42,0,0,1-.73-3.89,12.24,12.24,0,0,1,.71-4.16A9.57,9.57,0,0,1,51.6,14a10,10,0,0,1,3.47-2.33,13.57,13.57,0,0,1,9.56,0A10.14,10.14,0,0,1,68.12,14a9.55,9.55,0,0,1,2.12,3.35,11.39,11.39,0,0,1,.71,4,11.81,11.81,0,0,1-.06,1.18c0,.39-.08.75-.13,1.06H56.55a2.81,2.81,0,0,0,1.19,2.32,4.14,4.14,0,0,0,2.35.72A4.85,4.85,0,0,0,62.34,26a2.71,2.71,0,0,0,1.41-1.5L70,26.31a9.72,9.72,0,0,1-3.79,4A12,12,0,0,1,59.86,31.81Zm3.23-12.66A3.74,3.74,0,0,0,62,16.84a3.47,3.47,0,0,0-4.55,0,3.75,3.75,0,0,0-1.08,2.31Z"/><path class="cls-3" d="M81.69,31.81a16,16,0,0,1-5.2-.86,11.89,11.89,0,0,1-4.31-2.52L74.68,24a19.53,19.53,0,0,0,3.64,2,8.86,8.86,0,0,0,3.22.69c1,0,1.54-.32,1.54-1a1.09,1.09,0,0,0-.6-.92,9.63,9.63,0,0,0-2.33-.89,33.27,33.27,0,0,1-3.6-1.21,10.58,10.58,0,0,1-2.35-1.29,4.19,4.19,0,0,1-1.29-1.54,4.76,4.76,0,0,1-.38-2A6.6,6.6,0,0,1,73.14,15a6.84,6.84,0,0,1,1.72-2.28,7.76,7.76,0,0,1,2.61-1.48,10.49,10.49,0,0,1,3.34-.52,15.25,15.25,0,0,1,4.25.58,10.76,10.76,0,0,1,4.06,2.35l-2.77,4.39a19.4,19.4,0,0,0-3.16-1.75,6.21,6.21,0,0,0-2.38-.52,2.06,2.06,0,0,0-1.08.25.83.83,0,0,0-.43.79,1.08,1.08,0,0,0,.62.94,10.87,10.87,0,0,0,2.43.83A27.57,27.57,0,0,1,86,19.82a9.75,9.75,0,0,1,2.41,1.39,4.38,4.38,0,0,1,1.29,1.69,5.85,5.85,0,0,1,.38,2.18,6.65,6.65,0,0,1-.57,2.81A6,6,0,0,1,87.87,30a7.5,7.5,0,0,1-2.66,1.35A12.31,12.31,0,0,1,81.69,31.81Z"/><path class="cls-3" d="M91.51,21.3a11,11,0,0,1,.73-4A9.75,9.75,0,0,1,94.38,14a10.09,10.09,0,0,1,3.48-2.31,12.31,12.31,0,0,1,4.78-.87,11.52,11.52,0,0,1,6.18,1.54,9.94,9.94,0,0,1,3.71,4l-7.12,2.15A3.25,3.25,0,0,0,102.6,17a3.3,3.3,0,0,0-2.54,1.14,4.54,4.54,0,0,0-1,3.21,4.57,4.57,0,0,0,1,3.22,3.29,3.29,0,0,0,2.54,1.13,3.25,3.25,0,0,0,2.81-1.5l7.12,2.16a9.85,9.85,0,0,1-3.71,4,11.52,11.52,0,0,1-6.18,1.54A12.31,12.31,0,0,1,97.86,31a10.38,10.38,0,0,1-3.48-2.31,9.75,9.75,0,0,1-2.14-3.35A11,11,0,0,1,91.51,21.3Z"/><path class="cls-4" d="M120.81,31.81a7.66,7.66,0,0,1-2.81-.5A7,7,0,0,1,115.75,30a6.34,6.34,0,0,1-1.48-2.06,6.21,6.21,0,0,1-.54-2.58,6,6,0,0,1,.65-2.81,6.82,6.82,0,0,1,1.81-2.2,8.43,8.43,0,0,1,2.75-1.42,11.58,11.58,0,0,1,3.53-.5,9.4,9.4,0,0,1,4.08.77v-.62a2.61,2.61,0,0,0-.83-2.12,4.16,4.16,0,0,0-2.68-.69,8.91,8.91,0,0,0-3.19.56,16,16,0,0,0-3.08,1.63l-2.12-4.54a16.48,16.48,0,0,1,9.13-2.58q4.84,0,7.47,2.16t2.61,6.47v3.92a2.53,2.53,0,0,0,.31,1.45,1.48,1.48,0,0,0,1.08.48v6.16c-.59.13-1.15.22-1.67.29a12.69,12.69,0,0,1-1.41.09,5.14,5.14,0,0,1-3-.71,3.28,3.28,0,0,1-1.33-2.1l-.16-.73a9.17,9.17,0,0,1-3.12,2.64A8.18,8.18,0,0,1,120.81,31.81Zm2.2-5.23a4.61,4.61,0,0,0,1.34-.21,4.87,4.87,0,0,0,1.24-.56,3.19,3.19,0,0,0,.69-.68,1.23,1.23,0,0,0,.27-.75v-1.5a10.6,10.6,0,0,0-1.43-.38,6.58,6.58,0,0,0-1.38-.16,3.65,3.65,0,0,0-2.24.66,2,2,0,0,0-.88,1.65,1.69,1.69,0,0,0,.67,1.39A2.66,2.66,0,0,0,123,26.58Z"/><path class="cls-4" d="M137.91,9.48V3.32h7.31V9.48Zm0,22V11.18h7.31V31.43Z"/><path class="cls-4" d="M162.55,31.81a7.94,7.94,0,0,1-3.81-.86,6,6,0,0,1-2.5-2.52v11.2h-7.32V11.18h6.35v3a7.57,7.57,0,0,1,2.66-2.54,7.85,7.85,0,0,1,3.89-.89,8.9,8.9,0,0,1,6.7,3,10.12,10.12,0,0,1,1.94,3.31,11.77,11.77,0,0,1,.72,4.16,13,13,0,0,1-.66,4.21,10.77,10.77,0,0,1-1.81,3.37A8.15,8.15,0,0,1,166,31,7.55,7.55,0,0,1,162.55,31.81ZM160,25.65a3.19,3.19,0,0,0,1.48-.34,3.37,3.37,0,0,0,1.16-1,5.12,5.12,0,0,0,1.06-3.15,4.28,4.28,0,0,0-1.1-3.08A3.83,3.83,0,0,0,159.7,17,4.11,4.11,0,0,0,156.24,19v3.5a5.55,5.55,0,0,0,1.57,2.24A3.36,3.36,0,0,0,160,25.65Z"/><polyline class="cls-1" points="41.94 30.38 41.94 40.61 31.46 40.61"/><ellipse class="cls-1" cx="22.91" cy="23.13" rx="21.88" ry="21.73"/><ellipse class="cls-5" cx="22.17" cy="22.54" rx="21.14" ry="21.13"/><polyline class="cls-2" points="40.36 29.95 40.36 39.24 31.06 39.24"/><circle class="cls-4" cx="22.17" cy="22.54" r="18.11"/><polygon class="cls-6" points="16.83 18.57 11.46 13.97 0.89 26.32 8.4 28.42 16.83 18.57"/><polygon class="cls-6" points="0.79 27.15 2.1 35.78 7.79 29.13 0.79 27.15"/><polygon class="cls-6" points="32.13 0.7 23.4 0.75 26.43 7.36 32.13 0.7"/><polygon class="cls-6" points="25.83 8.06 22.59 0.97 12.02 13.31 17.4 17.91 25.83 8.06"/><polygon class="cls-6" points="2.59 36.25 35.2 36.85 8.5 29.34 2.59 36.25"/><polygon class="cls-6" points="26.74 8.04 38.29 33.25 32.65 1.13 26.74 8.04"/><polygon class="cls-6" points="9.11 28.62 38.13 36.81 17.34 19.01 9.11 28.62"/><polygon class="cls-6" points="17.91 18.35 38.7 36.15 26.14 8.74 17.91 18.35"/></g></g></svg>