<svg width="123" height="36" viewBox="0 0 123 36" fill="none" xmlns="http://www.w3.org/2000/svg">
<g clip-path="url(#clip0)">
<path d="M50.54 24.64C49.4922 24.6611 48.4501 24.4812 47.47 24.11C46.6248 23.7829 45.8556 23.286 45.21 22.65C44.6108 22.0424 44.1383 21.3218 43.82 20.53C43.5065 19.7234 43.3471 18.8653 43.35 18C43.3433 17.0799 43.499 16.1659 43.81 15.3C44.1076 14.4729 44.5742 13.7168 45.18 13.08C45.8184 12.4276 46.5843 11.9135 47.43 11.57C49.4292 10.8233 51.6308 10.8233 53.63 11.57C54.4795 11.9073 55.2492 12.4182 55.89 13.07C56.4993 13.6848 56.9669 14.4255 57.26 15.24C57.5724 16.0642 57.7317 16.9385 57.73 17.82C57.73 18.07 57.73 18.32 57.73 18.58C57.73 18.84 57.67 19.07 57.64 19.27H48.39C48.3895 19.5647 48.4591 19.8552 48.593 20.1178C48.7269 20.3803 48.9212 20.6073 49.16 20.78C49.6125 21.083 50.1455 21.2433 50.69 21.24C51.1974 21.2392 51.6975 21.1193 52.15 20.89C52.5724 20.6884 52.8991 20.3295 53.06 19.89L57.06 21.04C56.4945 22.1084 55.6427 22.9983 54.6 23.61C53.3649 24.3147 51.9616 24.6707 50.54 24.64ZM52.63 16.43C52.5823 15.8676 52.338 15.3401 51.94 14.94C51.7416 14.7555 51.5087 14.6119 51.2548 14.5176C51.0008 14.4232 50.7307 14.3798 50.46 14.39C50.1905 14.3778 49.9214 14.4202 49.6688 14.5147C49.4162 14.6093 49.1853 14.7539 48.99 14.94C48.5883 15.3386 48.3404 15.8663 48.29 16.43H52.63Z" fill="#494949"/>
<path d="M64.69 24.6399C63.5432 24.6435 62.404 24.4542 61.32 24.0799C60.2815 23.7416 59.327 23.186 58.52 22.4499L60.15 19.5999C60.8853 20.1094 61.6732 20.5385 62.5 20.8799C63.1644 21.1517 63.8725 21.3008 64.59 21.3199C65.25 21.3199 65.59 21.1199 65.59 20.6999C65.5829 20.5746 65.5432 20.4533 65.4748 20.3481C65.4064 20.2428 65.3117 20.1573 65.2 20.0999C64.722 19.8486 64.2148 19.6572 63.69 19.5299C62.8993 19.3098 62.1215 19.0461 61.36 18.7399C60.8162 18.5307 60.3019 18.2517 59.83 17.9099C59.4746 17.6507 59.1894 17.307 59 16.9099C58.8234 16.4999 58.7381 16.0563 58.75 15.6099C58.7422 14.971 58.879 14.3386 59.15 13.7599C59.4121 13.1971 59.7904 12.6961 60.26 12.2899C60.7513 11.8425 61.3302 11.502 61.96 11.2899C62.6561 11.0768 63.3823 10.9788 64.11 10.9999C65.0432 10.9972 65.9722 11.1251 66.87 11.3799C67.8488 11.6846 68.7473 12.2039 69.5 12.8999L67.71 15.7399C67.0786 15.304 66.4093 14.9258 65.71 14.6099C65.2212 14.3942 64.6942 14.2786 64.16 14.2699C63.9201 14.2637 63.6826 14.3188 63.47 14.4299C63.3787 14.481 63.3039 14.5571 63.2543 14.6492C63.2047 14.7413 63.1824 14.8456 63.19 14.9499C63.193 15.0788 63.2321 15.2043 63.3028 15.3121C63.3735 15.4199 63.473 15.5058 63.59 15.5599C64.0905 15.7982 64.6175 15.9761 65.16 16.0899C65.9769 16.299 66.7787 16.563 67.56 16.8799C68.1227 17.0989 68.6488 17.4024 69.12 17.7799C69.4872 18.0687 69.7731 18.4477 69.95 18.8799C70.1272 19.3284 70.2122 19.8079 70.2 20.2899C70.213 20.9165 70.0866 21.5382 69.83 22.1099C69.5786 22.6454 69.2053 23.1146 68.74 23.4799C68.2325 23.8849 67.647 24.1811 67.02 24.3499C66.2618 24.5607 65.4767 24.6584 64.69 24.6399Z" fill="#494949"/>
<path d="M71.05 17.83C71.0459 16.9474 71.2088 16.072 71.53 15.25C71.8303 14.4367 72.3008 13.6968 72.91 13.08C73.5508 12.4282 74.3205 11.9173 75.17 11.58C76.1506 11.181 77.2015 10.9838 78.26 11C79.661 10.9493 81.0477 11.296 82.26 12C83.2886 12.6135 84.1238 13.5041 84.67 14.57L80.06 16C79.8686 15.6905 79.6004 15.4358 79.2815 15.2606C78.9626 15.0854 78.6038 14.9956 78.24 15C77.9278 14.9968 77.6187 15.0612 77.3338 15.189C77.049 15.3167 76.7952 15.5047 76.59 15.74C76.1131 16.3244 75.8739 17.0671 75.92 17.82C75.8739 18.5729 76.1131 19.3155 76.59 19.9C76.7939 20.1368 77.0474 20.3259 77.3326 20.4538C77.6177 20.5817 77.9275 20.6452 78.24 20.64C78.6038 20.6444 78.9626 20.5546 79.2815 20.3794C79.6004 20.2042 79.8686 19.9494 80.06 19.64L84.68 21.04C84.1282 22.1019 83.2943 22.9911 82.27 23.61C81.0559 24.3095 79.6705 24.6558 78.27 24.61C77.2129 24.6325 76.162 24.4421 75.18 24.05C74.3305 23.7126 73.5608 23.2017 72.92 22.55C72.3108 21.9331 71.8403 21.1933 71.54 20.38C71.2191 19.568 71.0529 18.7031 71.05 17.83Z" fill="#494949"/>
<path d="M90 24.6399C89.3787 24.6473 88.7615 24.5388 88.18 24.3199C87.6418 24.1176 87.1465 23.8156 86.72 23.4299C86.2971 23.0616 85.9564 22.6085 85.72 22.0999C85.4864 21.5744 85.3671 21.0051 85.37 20.4299C85.3603 19.7938 85.5081 19.1652 85.8 18.5999C86.0858 18.0496 86.4845 17.5658 86.97 17.1799C87.5015 16.7661 88.105 16.4542 88.75 16.2599C89.4918 16.0328 90.2642 15.9215 91.04 15.9299C91.946 15.901 92.8473 16.0717 93.68 16.4299V15.9999C93.699 15.7466 93.6613 15.4921 93.5696 15.2551C93.4779 15.0182 93.3346 14.8046 93.15 14.6299C92.6381 14.2864 92.0243 14.1277 91.41 14.1799C90.7038 14.1722 90.0022 14.2943 89.34 14.5399C88.6392 14.8247 87.9691 15.1799 87.34 15.5999L85.97 12.6599C87.7703 11.5195 89.8697 10.9416 92 10.9999C93.7275 10.8852 95.4405 11.3807 96.84 12.3999C97.4246 12.9216 97.8812 13.5709 98.1743 14.2976C98.4674 15.0242 98.5891 15.8087 98.53 16.5899V19.1299C98.5025 19.4561 98.5721 19.7832 98.73 20.0699C98.8206 20.1651 98.9291 20.2414 99.0492 20.2946C99.1693 20.3478 99.2987 20.3768 99.43 20.3799V24.3799C99.074 24.4641 98.7134 24.5275 98.35 24.5699C98.0481 24.6072 97.7442 24.6273 97.44 24.6299C96.7617 24.6758 96.0855 24.5154 95.5 24.1699C95.0481 23.845 94.7398 23.3575 94.64 22.8099L94.54 22.3399C94.0096 23.0523 93.3261 23.6366 92.54 24.0499C91.7554 24.4543 90.8825 24.657 90 24.6399ZM91.43 21.2499C91.7253 21.2464 92.0185 21.1992 92.3 21.1099C92.5824 21.0286 92.8518 20.9074 93.1 20.7499C93.2714 20.6268 93.4231 20.4785 93.55 20.3099C93.6556 20.1717 93.715 20.0038 93.72 19.8299V18.8299C93.4192 18.7264 93.1119 18.6429 92.8 18.5799C92.5035 18.5203 92.2024 18.4868 91.9 18.4799C91.3831 18.4647 90.875 18.6154 90.45 18.9099C90.2785 19.0337 90.1403 19.198 90.0478 19.3882C89.9553 19.5785 89.9114 19.7886 89.92 19.9999C89.9143 20.1745 89.9515 20.3477 90.0282 20.5046C90.1049 20.6615 90.2188 20.7972 90.36 20.8999C90.6785 21.1413 91.0707 21.265 91.47 21.2499H91.43Z" fill="#7C5EAD"/>
<path d="M101.13 10.17V6.16998H105.87V10.17H101.13ZM101.13 24.39V11.27H105.87V24.39H101.13Z" fill="#7C5EAD"/>
<path d="M117.1 24.64C116.243 24.6644 115.393 24.4718 114.63 24.08C113.936 23.7113 113.369 23.1436 113 22.45V29.71H108.26V11.27H112.38V13.27C112.809 12.5873 113.4 12.0207 114.1 11.62C114.878 11.2193 115.745 11.0232 116.62 11.05C117.442 11.0358 118.258 11.197 119.014 11.5229C119.769 11.8488 120.446 12.3319 121 12.94C121.551 13.5717 121.978 14.3009 122.26 15.09C122.569 15.953 122.724 16.8633 122.72 17.78C122.73 18.7076 122.585 19.6303 122.29 20.51C122.034 21.3039 121.637 22.0455 121.12 22.7C120.638 23.2969 120.035 23.7844 119.35 24.13C118.651 24.477 117.88 24.6518 117.1 24.64ZM115.45 20.64C115.797 20.6524 116.141 20.5767 116.45 20.42C116.743 20.2673 116.999 20.0523 117.2 19.79C117.415 19.5123 117.584 19.2016 117.7 18.87C117.825 18.5098 117.89 18.1313 117.89 17.75C117.926 17.0158 117.671 16.2971 117.18 15.75C116.935 15.4995 116.64 15.3033 116.315 15.1741C115.989 15.0449 115.64 14.9856 115.29 15C114.823 15.0084 114.366 15.1382 113.965 15.3767C113.563 15.6151 113.231 15.954 113 16.36V18.63C113.215 19.1849 113.558 19.6816 114 20.08C114.396 20.4429 114.913 20.646 115.45 20.65V20.64Z" fill="#7C5EAD"/>
<path d="M18.71 35.41C27.9608 35.41 35.46 27.9107 35.46 18.66C35.46 9.4092 27.9608 1.90997 18.71 1.90997C9.45924 1.90997 1.96001 9.4092 1.96001 18.66C1.96001 27.9107 9.45924 35.41 18.71 35.41Z" fill="#7C5EAD"/>
<path d="M14.66 16.16L9.94 12.12L0.669998 22.96L7.26 24.81L14.66 16.16Z" fill="#7C5EAD" stroke="white" stroke-width="0.75" stroke-miterlimit="10"/>
<path d="M0.580002 23.6899L1.73 31.2699L6.73 25.4299L0.580002 23.6899Z" fill="#7C5EAD" stroke="white" stroke-width="0.75" stroke-miterlimit="10"/>
<path d="M28.09 0.469971L20.43 0.509971L23.09 6.31997L28.09 0.469971Z" fill="#7C5EAD" stroke="white" stroke-width="0.75" stroke-miterlimit="10"/>
<path d="M22.56 6.92996L19.72 0.709961L10.44 11.54L15.16 15.58L22.56 6.92996Z" fill="#7C5EAD" stroke="white" stroke-width="0.75" stroke-miterlimit="10"/>
<path d="M2.16 31.68L30.79 32.21L7.35 25.61L2.16 31.68Z" fill="#7C5EAD" stroke="white" stroke-width="0.75" stroke-miterlimit="10"/>
<path d="M23.36 6.90998L33.5 29.04L28.55 0.849976L23.36 6.90998Z" fill="#7C5EAD" stroke="white" stroke-width="0.75" stroke-miterlimit="10"/>
<path d="M7.89 24.98L33.36 32.17L15.11 16.55L7.89 24.98Z" fill="#7C5EAD" stroke="white" stroke-width="0.75" stroke-miterlimit="10"/>
<path d="M15.61 15.96L33.86 31.59L22.83 7.52997L15.61 15.96Z" fill="#7C5EAD" stroke="white" stroke-width="0.75" stroke-miterlimit="10"/>
</g>
<defs>
<clipPath id="clip0">
<rect width="122.69" height="35.41" fill="white"/>
</clipPath>
</defs>
</svg>
