<svg xmlns="http://www.w3.org/2000/svg" viewBox="0 0 147.67 44.86"><defs><style>.cls-1{fill:#a3a3a3;}.cls-2,.cls-5{fill:#fff;}.cls-3{fill:#494949;}.cls-4,.cls-6{fill:#7c5ead;}.cls-5{stroke:#a3a3a3;stroke-width:0.25px;}.cls-5,.cls-6{stroke-miterlimit:10;}.cls-6{stroke:#fff;}</style></defs><title>Fichier 8</title><g id="Calque_2" data-name="Calque 2"><g id="Calque_1-2" data-name="Calque 1"><path class="cls-1" d="M59,36a10.15,10.15,0,0,1-3.78-.66,8.13,8.13,0,0,1-2.77-1.79A7.75,7.75,0,0,1,50.79,31a8.28,8.28,0,0,1-.58-3.09,9.65,9.65,0,0,1,.56-3.32,7.57,7.57,0,0,1,1.69-2.72A8,8,0,0,1,55.22,20a10.86,10.86,0,0,1,7.62,0,8.24,8.24,0,0,1,2.77,1.84,7.63,7.63,0,0,1,1.69,2.67,8.93,8.93,0,0,1,.56,3.17c0,.31,0,.62,0,.94s-.07.59-.11.84H56.4a2.24,2.24,0,0,0,1,1.85,3.29,3.29,0,0,0,1.87.57A3.84,3.84,0,0,0,61,31.42a2.13,2.13,0,0,0,1.12-1.19l4.94,1.41a7.79,7.79,0,0,1-3,3.15A9.54,9.54,0,0,1,59,36Zm2.57-10.09a3,3,0,0,0-.86-1.84,2.78,2.78,0,0,0-3.62,0,3,3,0,0,0-.85,1.84Z"/><path class="cls-1" d="M76.42,36a12.75,12.75,0,0,1-4.14-.69,9.27,9.27,0,0,1-3.43-2l2-3.49a15.91,15.91,0,0,0,2.89,1.56,7,7,0,0,0,2.56.55c.82,0,1.23-.25,1.23-.76a.89.89,0,0,0-.47-.74,8.11,8.11,0,0,0-1.86-.7,27.87,27.87,0,0,1-2.87-1,8.48,8.48,0,0,1-1.87-1,3.21,3.21,0,0,1-1-1.22,3.74,3.74,0,0,1-.31-1.6,5.23,5.23,0,0,1,.49-2.27A5.6,5.6,0,0,1,71,20.84a6.13,6.13,0,0,1,2.08-1.18,8.32,8.32,0,0,1,2.65-.41,12.12,12.12,0,0,1,3.39.46,8.66,8.66,0,0,1,3.23,1.87l-2.2,3.5a15.48,15.48,0,0,0-2.52-1.4,4.94,4.94,0,0,0-1.9-.41,1.61,1.61,0,0,0-.86.2.67.67,0,0,0-.33.62.87.87,0,0,0,.49.76,8.38,8.38,0,0,0,1.93.65,22,22,0,0,1,2.94,1,8,8,0,0,1,1.92,1.1,3.41,3.41,0,0,1,1,1.35,4.45,4.45,0,0,1,.31,1.73,5.15,5.15,0,0,1-.46,2.24,4.63,4.63,0,0,1-1.33,1.69,6,6,0,0,1-2.12,1.07A9.64,9.64,0,0,1,76.42,36Z"/><path class="cls-1" d="M84.24,27.65a8.73,8.73,0,0,1,.58-3.17,7.8,7.8,0,0,1,1.7-2.67A8.24,8.24,0,0,1,89.29,20a9.85,9.85,0,0,1,3.81-.69A9.16,9.16,0,0,1,98,20.51a7.84,7.84,0,0,1,3,3.16L95.3,25.38a2.57,2.57,0,0,0-2.23-1.19,2.65,2.65,0,0,0-2,.9,3.67,3.67,0,0,0-.83,2.56A3.67,3.67,0,0,0,91,30.21a2.65,2.65,0,0,0,2,.9,2.57,2.57,0,0,0,2.23-1.19L101,31.64a7.88,7.88,0,0,1-3,3.15A9.16,9.16,0,0,1,93.1,36a9.85,9.85,0,0,1-3.81-.69,8.24,8.24,0,0,1-2.77-1.84,7.71,7.71,0,0,1-1.7-2.67A8.73,8.73,0,0,1,84.24,27.65Z"/><path class="cls-1" d="M107.57,36a6.1,6.1,0,0,1-2.24-.4,5.53,5.53,0,0,1-1.8-1.09,5,5,0,0,1-1.61-3.69,4.81,4.81,0,0,1,.53-2.24,5.24,5.24,0,0,1,1.44-1.75,6.67,6.67,0,0,1,2.19-1.13,9.2,9.2,0,0,1,2.8-.4,7.66,7.66,0,0,1,3.25.61v-.49a2.08,2.08,0,0,0-.65-1.68,3.31,3.31,0,0,0-2.14-.55,7,7,0,0,0-2.54.44,12.76,12.76,0,0,0-2.45,1.3l-1.69-3.62a13.22,13.22,0,0,1,7.27-2A9.08,9.08,0,0,1,115.87,21,6.28,6.28,0,0,1,118,26.15v3.13a2,2,0,0,0,.24,1.15,1.2,1.2,0,0,0,.86.38v4.9a12,12,0,0,1-1.33.23,9.64,9.64,0,0,1-1.12.08,4.16,4.16,0,0,1-2.38-.57,2.62,2.62,0,0,1-1-1.67l-.13-.58a7.35,7.35,0,0,1-2.48,2.1A6.51,6.51,0,0,1,107.57,36Zm1.74-4.17a3.79,3.79,0,0,0,1.08-.17,4.17,4.17,0,0,0,1-.44,2.57,2.57,0,0,0,.55-.54,1,1,0,0,0,.21-.6V28.91A8,8,0,0,0,111,28.6a5.84,5.84,0,0,0-1.1-.12,2.89,2.89,0,0,0-1.78.52,1.59,1.59,0,0,0-.71,1.32,1.33,1.33,0,0,0,.54,1.1A2.09,2.09,0,0,0,109.31,31.85Z"/><path class="cls-1" d="M121.18,18.24V13.33H127v4.91Zm0,17.47V19.59H127V35.71Z"/><path class="cls-1" d="M140.8,36a6.35,6.35,0,0,1-3-.69,4.82,4.82,0,0,1-2-2v8.92H130V19.59H135V22a6.09,6.09,0,0,1,2.12-2,6.26,6.26,0,0,1,3.1-.71,7.09,7.09,0,0,1,5.33,2.36,8.22,8.22,0,0,1,1.55,2.64,9.39,9.39,0,0,1,.57,3.31,10.71,10.71,0,0,1-.52,3.36,8.52,8.52,0,0,1-1.45,2.68,6.44,6.44,0,0,1-2.17,1.76A6,6,0,0,1,140.8,36Zm-2-4.91a2.62,2.62,0,0,0,1.18-.27,2.94,2.94,0,0,0,.92-.77,3.94,3.94,0,0,0,.61-1.13,4.16,4.16,0,0,0,.23-1.38,3.41,3.41,0,0,0-.87-2.45,3,3,0,0,0-2.32-.92,3.31,3.31,0,0,0-2.76,1.65v2.79A4.51,4.51,0,0,0,137,30.41,2.64,2.64,0,0,0,138.78,31.11Z"/><path class="cls-2" d="M57.6,34.93a10.1,10.1,0,0,1-3.77-.65,8,8,0,0,1-2.78-1.8,7.76,7.76,0,0,1-1.7-2.6,8.33,8.33,0,0,1-.58-3.1,9.56,9.56,0,0,1,.57-3.31A7.82,7.82,0,0,1,51,20.74a8,8,0,0,1,2.76-1.85,10.86,10.86,0,0,1,7.62,0,8.26,8.26,0,0,1,2.78,1.83,7.75,7.75,0,0,1,1.68,2.67,8.94,8.94,0,0,1,.57,3.17c0,.31,0,.62-.05.94s-.06.6-.1.84H55a2.28,2.28,0,0,0,.95,1.86,3.34,3.34,0,0,0,1.87.57,4,4,0,0,0,1.8-.43,2.21,2.21,0,0,0,1.12-1.2l4.93,1.41a7.75,7.75,0,0,1-3,3.16A9.54,9.54,0,0,1,57.6,34.93Zm2.57-10.08A3,3,0,0,0,59.32,23a2.75,2.75,0,0,0-3.62,0,3,3,0,0,0-.86,1.84Z"/><path class="cls-2" d="M75,34.93a12.75,12.75,0,0,1-4.14-.69,9.33,9.33,0,0,1-3.43-2l2-3.5a15.16,15.16,0,0,0,2.9,1.57,7.16,7.16,0,0,0,2.56.55c.82,0,1.23-.26,1.23-.77a.86.86,0,0,0-.48-.73,7.87,7.87,0,0,0-1.85-.71,27.07,27.07,0,0,1-2.87-1,8.26,8.26,0,0,1-1.87-1,3.36,3.36,0,0,1-1-1.23,3.89,3.89,0,0,1-.3-1.59,5.2,5.2,0,0,1,.49-2.27,5.37,5.37,0,0,1,1.36-1.81,6,6,0,0,1,2.09-1.18,8,8,0,0,1,2.65-.42,12.48,12.48,0,0,1,3.38.46,8.62,8.62,0,0,1,3.24,1.87L78.69,24a16.73,16.73,0,0,0-2.51-1.4,5.17,5.17,0,0,0-1.9-.41,1.68,1.68,0,0,0-.86.2.67.67,0,0,0-.34.63.85.85,0,0,0,.49.75,9,9,0,0,0,1.93.66,23.89,23.89,0,0,1,3,1,7.82,7.82,0,0,1,1.91,1.11,3.54,3.54,0,0,1,1,1.35,4.64,4.64,0,0,1,.31,1.73,5.34,5.34,0,0,1-.46,2.24,4.71,4.71,0,0,1-1.34,1.68,6.1,6.1,0,0,1-2.11,1.08A10.13,10.13,0,0,1,75,34.93Z"/><path class="cls-2" d="M82.8,26.56a8.73,8.73,0,0,1,.58-3.17,8,8,0,0,1,1.7-2.67,8.16,8.16,0,0,1,2.78-1.83,9.79,9.79,0,0,1,3.8-.69,9.16,9.16,0,0,1,4.92,1.22,7.93,7.93,0,0,1,3,3.16L93.87,24.3a2.59,2.59,0,0,0-2.24-1.2,2.63,2.63,0,0,0-2,.9,3.64,3.64,0,0,0-.83,2.56,3.6,3.6,0,0,0,.83,2.56,2.69,2.69,0,0,0,4.26-.29l5.67,1.72a7.93,7.93,0,0,1-3,3.16,9.16,9.16,0,0,1-4.92,1.22,9.79,9.79,0,0,1-3.8-.69,8.31,8.31,0,0,1-2.78-1.83,8,8,0,0,1-1.7-2.67A8.75,8.75,0,0,1,82.8,26.56Z"/><path class="cls-2" d="M106.13,34.93a6.35,6.35,0,0,1-2.24-.39,5.65,5.65,0,0,1-1.79-1.09,5.09,5.09,0,0,1-1.18-1.64,4.91,4.91,0,0,1-.43-2.06,4.76,4.76,0,0,1,.52-2.23,5.39,5.39,0,0,1,1.44-1.75,6.9,6.9,0,0,1,2.19-1.14,9.59,9.59,0,0,1,2.81-.39,7.54,7.54,0,0,1,3.25.61v-.49a2.08,2.08,0,0,0-.66-1.69,3.3,3.3,0,0,0-2.13-.55,7.26,7.26,0,0,0-2.55.44,13.15,13.15,0,0,0-2.45,1.31l-1.68-3.62a13.08,13.08,0,0,1,7.26-2.05,9.15,9.15,0,0,1,6,1.71,6.29,6.29,0,0,1,2.08,5.15v3.13a2,2,0,0,0,.25,1.15,1.18,1.18,0,0,0,.86.38v4.91c-.47.1-.92.18-1.34.23a9.45,9.45,0,0,1-1.12.07,4.11,4.11,0,0,1-2.37-.56,2.66,2.66,0,0,1-1.06-1.67l-.12-.59a7.45,7.45,0,0,1-2.48,2.1A6.58,6.58,0,0,1,106.13,34.93Zm1.75-4.16A3.73,3.73,0,0,0,109,30.6a3.85,3.85,0,0,0,1-.45,2.33,2.33,0,0,0,.55-.53,1,1,0,0,0,.22-.6v-1.2a8.59,8.59,0,0,0-1.14-.3,5,5,0,0,0-1.1-.13,3,3,0,0,0-1.78.52,1.58,1.58,0,0,0-.7,1.32,1.38,1.38,0,0,0,.53,1.11A2.18,2.18,0,0,0,107.88,30.77Z"/><path class="cls-2" d="M119.74,17.15v-4.9h5.83v4.9Zm0,17.48V18.5h5.83V34.63Z"/><path class="cls-2" d="M139.36,34.93a6.33,6.33,0,0,1-3-.69,4.74,4.74,0,0,1-2-2v8.92h-5.83V18.5h5.06v2.42a6.15,6.15,0,0,1,2.11-2,6.29,6.29,0,0,1,3.1-.7,7,7,0,0,1,5.34,2.36,8,8,0,0,1,1.54,2.63,9.43,9.43,0,0,1,.57,3.31,10.38,10.38,0,0,1-.52,3.36,8.59,8.59,0,0,1-1.44,2.68,6.5,6.5,0,0,1-2.18,1.77A6.14,6.14,0,0,1,139.36,34.93Zm-2-4.9a2.48,2.48,0,0,0,1.18-.28,2.8,2.8,0,0,0,.92-.76,4.15,4.15,0,0,0,.84-2.52,3.41,3.41,0,0,0-.87-2.45,3,3,0,0,0-2.31-.92,3.27,3.27,0,0,0-2.76,1.66v2.79a4.43,4.43,0,0,0,1.25,1.77A2.68,2.68,0,0,0,137.34,30Z"/><path class="cls-3" d="M57.48,34.05a9.87,9.87,0,0,1-3.72-.65A7.81,7.81,0,0,1,51,31.63a7.73,7.73,0,0,1-1.68-2.57,8.22,8.22,0,0,1-.57-3,9.6,9.6,0,0,1,.56-3.27A7.69,7.69,0,0,1,51,20.05a8.35,8.35,0,0,1,2.72-1.83,10.74,10.74,0,0,1,7.52,0A8.06,8.06,0,0,1,64,20a7.33,7.33,0,0,1,1.67,2.63,8.94,8.94,0,0,1,.56,3.13c0,.3,0,.61,0,.92s-.06.59-.1.83H54.88a2.21,2.21,0,0,0,.94,1.83,3.29,3.29,0,0,0,1.84.56,3.91,3.91,0,0,0,1.77-.42,2.17,2.17,0,0,0,1.1-1.18l4.87,1.39a7.6,7.6,0,0,1-3,3.11A9.4,9.4,0,0,1,57.48,34.05ZM60,24.1a2.91,2.91,0,0,0-.85-1.81,2.71,2.71,0,0,0-3.57,0,3,3,0,0,0-.84,1.81Z"/><path class="cls-3" d="M74.62,34.05a12.39,12.39,0,0,1-4.08-.68,9.2,9.2,0,0,1-3.39-2l2-3.45A15.32,15.32,0,0,0,72,29.49,7,7,0,0,0,74.5,30c.81,0,1.21-.25,1.21-.76a.84.84,0,0,0-.47-.72,8.19,8.19,0,0,0-1.83-.7,27,27,0,0,1-2.82-1,8.3,8.3,0,0,1-1.85-1,3.24,3.24,0,0,1-1-1.21,3.79,3.79,0,0,1-.3-1.57,5.2,5.2,0,0,1,.48-2.24,5.36,5.36,0,0,1,1.35-1.79,6,6,0,0,1,2-1.16,8.13,8.13,0,0,1,2.62-.41,11.82,11.82,0,0,1,3.34.46,8.43,8.43,0,0,1,3.19,1.84l-2.18,3.45a14.63,14.63,0,0,0-2.48-1.38,5,5,0,0,0-1.87-.41,1.67,1.67,0,0,0-.85.2.67.67,0,0,0-.33.62.85.85,0,0,0,.48.74,8.49,8.49,0,0,0,1.91.65,21.48,21.48,0,0,1,2.9.95,7.79,7.79,0,0,1,1.89,1.09,3.5,3.5,0,0,1,1,1.33,4.38,4.38,0,0,1,.31,1.71A5.05,5.05,0,0,1,80.79,31a4.67,4.67,0,0,1-1.31,1.66,5.89,5.89,0,0,1-2.09,1.06A9.84,9.84,0,0,1,74.62,34.05Z"/><path class="cls-3" d="M82.33,25.8a8.73,8.73,0,0,1,.58-3.13A7.49,7.49,0,0,1,84.59,20a8.16,8.16,0,0,1,2.73-1.82,9.76,9.76,0,0,1,3.75-.68,9.12,9.12,0,0,1,4.86,1.21,7.86,7.86,0,0,1,2.92,3.12l-5.6,1.69A2.54,2.54,0,0,0,91,22.38a2.61,2.61,0,0,0-2,.89,3.6,3.6,0,0,0-.82,2.53,3.56,3.56,0,0,0,.82,2.52,2.67,2.67,0,0,0,4.2-.28l5.6,1.69a7.77,7.77,0,0,1-2.92,3.11,9,9,0,0,1-4.86,1.21,9.57,9.57,0,0,1-3.75-.68,8.14,8.14,0,0,1-2.73-1.81,7.59,7.59,0,0,1-1.68-2.63A8.73,8.73,0,0,1,82.33,25.8Z"/><path class="cls-4" d="M105.35,34.05a6.15,6.15,0,0,1-2.21-.39,5.41,5.41,0,0,1-1.77-1.07A5.06,5.06,0,0,1,100.21,31a4.77,4.77,0,0,1-.43-2,4.64,4.64,0,0,1,.52-2.2A5.23,5.23,0,0,1,101.72,25a6.69,6.69,0,0,1,2.16-1.12,9.32,9.32,0,0,1,2.77-.39,7.46,7.46,0,0,1,3.2.6v-.48A2,2,0,0,0,109.2,22a3.2,3.2,0,0,0-2.1-.55,7,7,0,0,0-2.51.44,12,12,0,0,0-2.42,1.29l-1.66-3.57a12.93,12.93,0,0,1,7.17-2,9,9,0,0,1,5.86,1.7,6.2,6.2,0,0,1,2.06,5.08V27.4a2,2,0,0,0,.24,1.13,1.12,1.12,0,0,0,.85.38v4.84c-.47.1-.91.18-1.32.23a9.14,9.14,0,0,1-1.1.07,4.06,4.06,0,0,1-2.35-.56,2.61,2.61,0,0,1-1-1.64l-.12-.58a7.26,7.26,0,0,1-2.45,2.07A6.36,6.36,0,0,1,105.35,34.05Zm1.72-4.11a3.66,3.66,0,0,0,1.06-.17,4.08,4.08,0,0,0,1-.43,2.72,2.72,0,0,0,.54-.53,1,1,0,0,0,.21-.59V27a7.9,7.9,0,0,0-1.12-.3,5,5,0,0,0-1.09-.13,2.88,2.88,0,0,0-1.75.52,1.55,1.55,0,0,0-.69,1.3,1.33,1.33,0,0,0,.53,1.09A2.08,2.08,0,0,0,107.07,29.94Z"/><path class="cls-4" d="M118.77,16.51V11.68h5.75v4.83Zm0,17.24V17.84h5.75V33.75Z"/><path class="cls-4" d="M138.13,34.05a6.21,6.21,0,0,1-3-.68,4.68,4.68,0,0,1-2-2v8.8h-5.75V17.84h5v2.39a5.69,5.69,0,0,1,5.14-2.69,7,7,0,0,1,5.26,2.33,8,8,0,0,1,1.53,2.6,9.44,9.44,0,0,1,.56,3.27,10.39,10.39,0,0,1-.51,3.31A8.36,8.36,0,0,1,143,31.69a6.37,6.37,0,0,1-2.14,1.74A5.88,5.88,0,0,1,138.13,34.05Zm-2-4.84a2.51,2.51,0,0,0,1.16-.27,2.64,2.64,0,0,0,.91-.75,4.17,4.17,0,0,0,.61-1.12,4.08,4.08,0,0,0,.22-1.36,3.33,3.33,0,0,0-.86-2.42,3,3,0,0,0-2.28-.91A3.25,3.25,0,0,0,133.17,24v2.76a4.34,4.34,0,0,0,1.24,1.75A2.63,2.63,0,0,0,136.13,29.21Z"/><polyline class="cls-1" points="41.94 30.38 41.94 40.61 31.46 40.61"/><ellipse class="cls-1" cx="22.91" cy="23.13" rx="21.88" ry="21.73"/><ellipse class="cls-5" cx="22.17" cy="22.54" rx="21.14" ry="21.13"/><polyline class="cls-2" points="40.36 29.95 40.36 39.24 31.06 39.24"/><circle class="cls-4" cx="22.17" cy="22.54" r="18.11"/><polygon class="cls-6" points="16.83 18.57 11.46 13.97 0.89 26.32 8.4 28.42 16.83 18.57"/><polygon class="cls-6" points="0.79 27.15 2.1 35.78 7.79 29.13 0.79 27.15"/><polygon class="cls-6" points="32.13 0.7 23.4 0.75 26.43 7.36 32.13 0.7"/><polygon class="cls-6" points="25.83 8.06 22.59 0.97 12.02 13.31 17.4 17.91 25.83 8.06"/><polygon class="cls-6" points="2.59 36.25 35.2 36.85 8.5 29.34 2.59 36.25"/><polygon class="cls-6" points="26.74 8.04 38.29 33.25 32.65 1.13 26.74 8.04"/><polygon class="cls-6" points="9.11 28.62 38.13 36.81 17.34 19.01 9.11 28.62"/><polygon class="cls-6" points="17.91 18.35 38.7 36.15 26.14 8.74 17.91 18.35"/></g></g></svg>