<svg xmlns="http://www.w3.org/2000/svg" viewBox="0 0 151.37 44.86"><defs><style>.cls-1{fill:#a3a3a3;}.cls-2,.cls-5{fill:#fff;}.cls-3{fill:#494949;}.cls-4,.cls-6{fill:#7c5ead;}.cls-5{stroke:#a3a3a3;stroke-width:0.25px;}.cls-5,.cls-6{stroke-miterlimit:10;}.cls-6{stroke:#fff;}</style></defs><title>Fichier 6</title><g id="Calque_2" data-name="Calque 2"><g id="Calque_1-2" data-name="Calque 1"><path class="cls-1" d="M63.9,36.33a10.07,10.07,0,0,1-3.72-.65,8.1,8.1,0,0,1-2.74-1.77,7.57,7.57,0,0,1-1.68-2.58,8.22,8.22,0,0,1-.57-3A9.37,9.37,0,0,1,55.75,25a7.38,7.38,0,0,1,1.66-2.69,8,8,0,0,1,2.72-1.83,10.74,10.74,0,0,1,7.52,0,8.19,8.19,0,0,1,2.74,1.81,7.48,7.48,0,0,1,1.66,2.63,8.77,8.77,0,0,1,.56,3.14c0,.3,0,.61,0,.92s-.07.59-.11.83H61.3a2.21,2.21,0,0,0,.94,1.83,3.29,3.29,0,0,0,1.84.56,3.85,3.85,0,0,0,1.77-.42A2.16,2.16,0,0,0,67,30.61L71.83,32a7.75,7.75,0,0,1-3,3.12A9.53,9.53,0,0,1,63.9,36.33Zm2.54-10a2.91,2.91,0,0,0-.85-1.81,2.43,2.43,0,0,0-1.78-.67,2.47,2.47,0,0,0-1.79.67,3,3,0,0,0-.84,1.81Z"/><path class="cls-1" d="M81.05,36.33A12.65,12.65,0,0,1,77,35.65a9.36,9.36,0,0,1-3.39-2l2-3.45a15.32,15.32,0,0,0,2.86,1.55,6.94,6.94,0,0,0,2.52.54c.81,0,1.21-.25,1.21-.75a.85.85,0,0,0-.47-.73,8.19,8.19,0,0,0-1.83-.7A27.24,27.24,0,0,1,77,29.17a8.21,8.21,0,0,1-1.84-1,3.22,3.22,0,0,1-1-1.21,3.68,3.68,0,0,1-.31-1.58,5.13,5.13,0,0,1,.49-2.24,5.43,5.43,0,0,1,1.34-1.78,6.1,6.1,0,0,1,2.06-1.16,7.87,7.87,0,0,1,2.62-.41,12.19,12.19,0,0,1,3.34.45,8.46,8.46,0,0,1,3.19,1.85l-2.18,3.45a14.63,14.63,0,0,0-2.48-1.38,5,5,0,0,0-1.87-.41,1.64,1.64,0,0,0-.85.2.66.66,0,0,0-.33.62.85.85,0,0,0,.48.74,8.3,8.3,0,0,0,1.91.65,21.48,21.48,0,0,1,2.9.95A7.48,7.48,0,0,1,86.36,28a3.45,3.45,0,0,1,1,1.33,4.57,4.57,0,0,1,.3,1.71,5.19,5.19,0,0,1-.45,2.21,4.72,4.72,0,0,1-1.32,1.66A5.89,5.89,0,0,1,83.82,36,9.43,9.43,0,0,1,81.05,36.33Z"/><path class="cls-1" d="M88.77,28.07a8.78,8.78,0,0,1,.57-3.14A8,8,0,0,1,91,22.3a8.19,8.19,0,0,1,2.74-1.81,9.57,9.57,0,0,1,3.75-.68A9,9,0,0,1,102.37,21a7.77,7.77,0,0,1,2.92,3.11l-5.6,1.7a2.54,2.54,0,0,0-2.21-1.18,2.64,2.64,0,0,0-2,.89,3.64,3.64,0,0,0-.81,2.53,3.6,3.6,0,0,0,.81,2.52,2.62,2.62,0,0,0,2,.9,2.56,2.56,0,0,0,2.21-1.18l5.6,1.69a7.86,7.86,0,0,1-2.92,3.12,9.12,9.12,0,0,1-4.86,1.21,9.76,9.76,0,0,1-3.75-.68A8.21,8.21,0,0,1,91,33.83a7.89,7.89,0,0,1-1.68-2.63A8.72,8.72,0,0,1,88.77,28.07Z"/><path class="cls-1" d="M111.79,36.33a6.23,6.23,0,0,1-2.21-.4,5.62,5.62,0,0,1-1.77-1.07,5,5,0,0,1-1.16-1.62,4.89,4.89,0,0,1-.42-2,4.82,4.82,0,0,1,.51-2.21,5.32,5.32,0,0,1,1.42-1.72,6.65,6.65,0,0,1,2.17-1.12,9.2,9.2,0,0,1,2.76-.39,7.54,7.54,0,0,1,3.21.6v-.48a2.08,2.08,0,0,0-.65-1.67,3.27,3.27,0,0,0-2.1-.54,7,7,0,0,0-2.51.44,12.14,12.14,0,0,0-2.42,1.28L107,21.83a13,13,0,0,1,7.17-2A9,9,0,0,1,120,21.5a6.22,6.22,0,0,1,2.06,5.08v3.09a2,2,0,0,0,.24,1.13,1.12,1.12,0,0,0,.85.38V36c-.47.1-.9.18-1.32.23a9.33,9.33,0,0,1-1.1.08,4.14,4.14,0,0,1-2.35-.56,2.66,2.66,0,0,1-1-1.65l-.12-.58a7.35,7.35,0,0,1-2.45,2.07A6.38,6.38,0,0,1,111.79,36.33Zm1.73-4.12a3.69,3.69,0,0,0,1.06-.16,4.24,4.24,0,0,0,1-.44,2.54,2.54,0,0,0,.55-.53,1,1,0,0,0,.21-.59V29.31a8.25,8.25,0,0,0-1.12-.31,5.66,5.66,0,0,0-1.09-.12,2.82,2.82,0,0,0-1.75.52,1.54,1.54,0,0,0-.7,1.3,1.34,1.34,0,0,0,.53,1.09A2.09,2.09,0,0,0,113.52,32.21Z"/><path class="cls-1" d="M125.22,18.78V13.94H131v4.84Zm0,17.24V20.11H131V36Z"/><path class="cls-1" d="M144.59,36.33a6.32,6.32,0,0,1-3-.68,4.76,4.76,0,0,1-2-2v8.81h-5.75V20.11h5V22.5a6,6,0,0,1,2.09-2,6.17,6.17,0,0,1,3-.69,6.92,6.92,0,0,1,2.94.62,6.84,6.84,0,0,1,2.33,1.71,8.24,8.24,0,0,1,1.53,2.6,9.44,9.44,0,0,1,.56,3.27,10.39,10.39,0,0,1-.52,3.31A8.51,8.51,0,0,1,149.43,34a6.66,6.66,0,0,1-2.15,1.74A6,6,0,0,1,144.59,36.33Zm-2-4.84a2.59,2.59,0,0,0,1.17-.28,2.7,2.7,0,0,0,.9-.75,3.91,3.91,0,0,0,.61-1.12A4.09,4.09,0,0,0,145.5,28a3.34,3.34,0,0,0-.87-2.42,3,3,0,0,0-2.28-.91,3.23,3.23,0,0,0-2.72,1.63V29a4.3,4.3,0,0,0,1.24,1.76A2.64,2.64,0,0,0,142.59,31.49Z"/><path class="cls-2" d="M62.48,35.25a9.87,9.87,0,0,1-3.72-.65A7.81,7.81,0,0,1,56,32.83a7.73,7.73,0,0,1-1.68-2.57,8.26,8.26,0,0,1-.57-3.05,9.6,9.6,0,0,1,.56-3.27A7.52,7.52,0,0,1,56,21.25a8,8,0,0,1,2.73-1.83,9.52,9.52,0,0,1,3.76-.68,9.63,9.63,0,0,1,3.76.68A8.14,8.14,0,0,1,69,21.23a7.56,7.56,0,0,1,1.67,2.63A9,9,0,0,1,71.2,27c0,.31,0,.62,0,.93a8,8,0,0,1-.11.83H59.88a2.21,2.21,0,0,0,.94,1.83,3.29,3.29,0,0,0,1.84.56,3.85,3.85,0,0,0,1.77-.42,2.15,2.15,0,0,0,1.11-1.18l4.87,1.39a7.66,7.66,0,0,1-3,3.11A9.41,9.41,0,0,1,62.48,35.25ZM65,25.3a2.93,2.93,0,0,0-.84-1.81,2.71,2.71,0,0,0-3.57,0,2.89,2.89,0,0,0-.85,1.81Z"/><path class="cls-2" d="M79.64,35.25a12.45,12.45,0,0,1-4.09-.68,9.2,9.2,0,0,1-3.39-2l2-3.45A15.32,15.32,0,0,0,77,30.69a7,7,0,0,0,2.53.54c.8,0,1.21-.25,1.21-.76a.86.86,0,0,0-.47-.72,8.1,8.1,0,0,0-1.83-.7,26.45,26.45,0,0,1-2.83-.95,8.3,8.3,0,0,1-1.85-1,3.32,3.32,0,0,1-1-1.21,3.84,3.84,0,0,1-.3-1.58,5.27,5.27,0,0,1,.48-2.24,5.32,5.32,0,0,1,1.35-1.78,6.07,6.07,0,0,1,2-1.17,8.13,8.13,0,0,1,2.62-.4,12.14,12.14,0,0,1,3.34.45A8.59,8.59,0,0,1,85.48,21L83.3,24.45a16.07,16.07,0,0,0-2.48-1.37,4.85,4.85,0,0,0-1.88-.41,1.7,1.7,0,0,0-.85.19.69.69,0,0,0-.33.63.84.84,0,0,0,.49.74,8.17,8.17,0,0,0,1.9.65,22.15,22.15,0,0,1,2.91.95A7.85,7.85,0,0,1,85,26.92a3.42,3.42,0,0,1,1,1.33,4.54,4.54,0,0,1,.3,1.71,5.19,5.19,0,0,1-.45,2.21,4.59,4.59,0,0,1-1.32,1.66,5.84,5.84,0,0,1-2.08,1.06A9.84,9.84,0,0,1,79.64,35.25Z"/><path class="cls-2" d="M87.35,27a8.56,8.56,0,0,1,.58-3.13,7.59,7.59,0,0,1,1.68-2.63,8,8,0,0,1,2.73-1.81,9.59,9.59,0,0,1,3.76-.68A9,9,0,0,1,101,20a7.7,7.7,0,0,1,2.92,3.11l-5.6,1.7a2.54,2.54,0,0,0-2.2-1.18,2.58,2.58,0,0,0-2,.89A3.57,3.57,0,0,0,93.25,27a3.58,3.58,0,0,0,.82,2.53,2.58,2.58,0,0,0,2,.89,2.54,2.54,0,0,0,2.2-1.18l5.6,1.7A7.7,7.7,0,0,1,101,34a9,9,0,0,1-4.85,1.21,9.59,9.59,0,0,1-3.76-.68,8,8,0,0,1-2.73-1.81,7.68,7.68,0,0,1-1.68-2.63A8.57,8.57,0,0,1,87.35,27Z"/><path class="cls-2" d="M110.38,35.25a6.15,6.15,0,0,1-2.21-.39,5.41,5.41,0,0,1-1.77-1.07,5.09,5.09,0,0,1-1.17-1.62,4.92,4.92,0,0,1-.42-2,4.82,4.82,0,0,1,.51-2.21,5.35,5.35,0,0,1,1.43-1.72,6.32,6.32,0,0,1,2.16-1.12,9.27,9.27,0,0,1,2.77-.39,7.46,7.46,0,0,1,3.2.6v-.48a2,2,0,0,0-.65-1.67,3.27,3.27,0,0,0-2.1-.54,6.83,6.83,0,0,0-2.51.44,12.41,12.41,0,0,0-2.42,1.28l-1.66-3.57a12.92,12.92,0,0,1,7.17-2,9,9,0,0,1,5.86,1.69,6.17,6.17,0,0,1,2.06,5.08V28.6a2,2,0,0,0,.24,1.13,1.19,1.19,0,0,0,.85.38V35c-.46.1-.9.18-1.31.23a9.42,9.42,0,0,1-1.11.07A4.09,4.09,0,0,1,117,34.7a2.63,2.63,0,0,1-1-1.65l-.12-.58a7.16,7.16,0,0,1-2.45,2.07A6.36,6.36,0,0,1,110.38,35.25Zm1.72-4.11a3.66,3.66,0,0,0,1.06-.17,4.08,4.08,0,0,0,1-.43,2.72,2.72,0,0,0,.54-.53,1,1,0,0,0,.21-.59V28.24a6.74,6.74,0,0,0-1.12-.31,5.58,5.58,0,0,0-1.09-.12,2.82,2.82,0,0,0-1.75.52,1.56,1.56,0,0,0-.7,1.3,1.36,1.36,0,0,0,.53,1.09A2.13,2.13,0,0,0,112.1,31.14Z"/><path class="cls-2" d="M123.81,17.71V12.87h5.75v4.84Zm0,17.24V19h5.75V35Z"/><path class="cls-2" d="M143.17,35.25a6.14,6.14,0,0,1-3-.68,4.65,4.65,0,0,1-2-2V41.4h-5.75V19h5v2.39a6,6,0,0,1,2.09-2,6.24,6.24,0,0,1,3.06-.69,7,7,0,0,1,5.26,2.32,8,8,0,0,1,1.53,2.61,9.38,9.38,0,0,1,.56,3.26,10.18,10.18,0,0,1-.52,3.32A8.15,8.15,0,0,1,148,32.89a6.31,6.31,0,0,1-2.15,1.74A5.82,5.82,0,0,1,143.17,35.25Zm-2-4.84a2.52,2.52,0,0,0,1.17-.27,2.74,2.74,0,0,0,.91-.76,3.94,3.94,0,0,0,.6-1.11,4.1,4.1,0,0,0,.23-1.37,3.41,3.41,0,0,0-.86-2.42,3,3,0,0,0-2.29-.9,3.24,3.24,0,0,0-2.72,1.63V28a4.47,4.47,0,0,0,1.24,1.76A2.63,2.63,0,0,0,141.17,30.41Z"/><path class="cls-3" d="M62.36,34.38a9.84,9.84,0,0,1-3.67-.64A7.81,7.81,0,0,1,56,32a7.48,7.48,0,0,1-1.65-2.54,8.05,8.05,0,0,1-.57-3,9.37,9.37,0,0,1,.55-3.23A7.53,7.53,0,0,1,56,20.57a7.92,7.92,0,0,1,2.69-1.81,10.58,10.58,0,0,1,7.41,0,8,8,0,0,1,2.7,1.79,7.39,7.39,0,0,1,1.65,2.6A8.9,8.9,0,0,1,71,26.24c0,.3,0,.6,0,.91s-.06.58-.1.82h-11a2.21,2.21,0,0,0,.92,1.8,3.25,3.25,0,0,0,1.82.56,3.79,3.79,0,0,0,1.75-.42,2.1,2.1,0,0,0,1.09-1.17l4.8,1.38a7.46,7.46,0,0,1-2.94,3.07A9.27,9.27,0,0,1,62.36,34.38Zm2.51-9.81A2.92,2.92,0,0,0,64,22.78a2.69,2.69,0,0,0-3.53,0,2.92,2.92,0,0,0-.83,1.79Z"/><path class="cls-3" d="M79.28,34.38a12.29,12.29,0,0,1-4-.67,9.11,9.11,0,0,1-3.35-1.95l1.94-3.4a15.75,15.75,0,0,0,2.82,1.52,6.83,6.83,0,0,0,2.49.54q1.2,0,1.2-.75A.87.87,0,0,0,79.9,29a7.86,7.86,0,0,0-1.81-.68,27.2,27.2,0,0,1-2.79-.94,8,8,0,0,1-1.82-1,3.18,3.18,0,0,1-1-1.2,3.66,3.66,0,0,1-.3-1.55,5.14,5.14,0,0,1,.48-2.21A5.43,5.43,0,0,1,74,19.61a6,6,0,0,1,2-1.15,8.12,8.12,0,0,1,2.58-.4,11.83,11.83,0,0,1,3.29.45A8.29,8.29,0,0,1,85,20.33l-2.15,3.4a15.33,15.33,0,0,0-2.44-1.36A4.91,4.91,0,0,0,78.6,22a1.74,1.74,0,0,0-.84.19.67.67,0,0,0-.33.62.85.85,0,0,0,.48.73,8.4,8.4,0,0,0,1.88.64,21.51,21.51,0,0,1,2.87.94,7.94,7.94,0,0,1,1.86,1.07,3.36,3.36,0,0,1,1,1.32,4.38,4.38,0,0,1,.3,1.68,5.06,5.06,0,0,1-.45,2.18A4.57,4.57,0,0,1,84.07,33,5.81,5.81,0,0,1,82,34,9.52,9.52,0,0,1,79.28,34.38Z"/><path class="cls-3" d="M86.89,26.24a8.47,8.47,0,0,1,.57-3.09,7.56,7.56,0,0,1,1.66-2.6,8,8,0,0,1,2.7-1.79,9.47,9.47,0,0,1,3.7-.67,9,9,0,0,1,4.79,1.19,7.73,7.73,0,0,1,2.88,3.08L97.67,24a2.64,2.64,0,0,0-4.15-.28,3.52,3.52,0,0,0-.81,2.49,3.55,3.55,0,0,0,.81,2.49,2.64,2.64,0,0,0,4.15-.28l5.52,1.67a7.7,7.7,0,0,1-2.88,3.07,8.91,8.91,0,0,1-4.79,1.19,9.47,9.47,0,0,1-3.7-.67,7.73,7.73,0,0,1-2.7-1.79,7.52,7.52,0,0,1-1.66-2.59A8.55,8.55,0,0,1,86.89,26.24Z"/><path class="cls-4" d="M109.6,34.38a6.28,6.28,0,0,1-2.18-.38,5.64,5.64,0,0,1-1.74-1.06,4.85,4.85,0,0,1-1.15-1.6,4.78,4.78,0,0,1-.42-2,4.7,4.7,0,0,1,.51-2.18,5.29,5.29,0,0,1,1.4-1.7,6.47,6.47,0,0,1,2.14-1.1,9,9,0,0,1,2.73-.39,7.33,7.33,0,0,1,3.16.6v-.48a2,2,0,0,0-.64-1.64,3.22,3.22,0,0,0-2.08-.54,7,7,0,0,0-2.47.43,12.41,12.41,0,0,0-2.39,1.27l-1.64-3.52a12.78,12.78,0,0,1,7.07-2,8.9,8.9,0,0,1,5.79,1.67,6.15,6.15,0,0,1,2,5v3a1.91,1.91,0,0,0,.24,1.12,1.12,1.12,0,0,0,.83.37v4.78c-.45.1-.89.17-1.29.22a9.11,9.11,0,0,1-1.09.07,4,4,0,0,1-2.32-.55,2.61,2.61,0,0,1-1-1.62l-.12-.57a7.15,7.15,0,0,1-2.41,2A6.33,6.33,0,0,1,109.6,34.38Zm1.7-4.05a3.6,3.6,0,0,0,1-.17,3.76,3.76,0,0,0,1-.43,2.44,2.44,0,0,0,.54-.52,1,1,0,0,0,.21-.59V27.46a8.12,8.12,0,0,0-1.11-.3,5.39,5.39,0,0,0-1.07-.12,2.82,2.82,0,0,0-1.73.51,1.54,1.54,0,0,0-.69,1.28,1.33,1.33,0,0,0,.53,1.08A2,2,0,0,0,111.3,30.33Z"/><path class="cls-4" d="M122.85,17.08V12.3h5.67v4.78Zm0,17V18.39h5.67v15.7Z"/><path class="cls-4" d="M142,34.38a6.12,6.12,0,0,1-2.95-.67,4.56,4.56,0,0,1-1.94-1.95v8.68h-5.67v-22h4.92v2.36a5.78,5.78,0,0,1,2.06-2,6,6,0,0,1,3-.69,6.87,6.87,0,0,1,5.2,2.3,8,8,0,0,1,1.5,2.57,9.11,9.11,0,0,1,.55,3.22,10.19,10.19,0,0,1-.5,3.27,8.39,8.39,0,0,1-1.41,2.61,6.42,6.42,0,0,1-2.11,1.71A5.84,5.84,0,0,1,142,34.38Zm-2-4.77a2.47,2.47,0,0,0,1.15-.27,2.65,2.65,0,0,0,.89-.74,4,4,0,0,0,.83-2.45,3.32,3.32,0,0,0-.86-2.39,2.92,2.92,0,0,0-2.25-.89,3.18,3.18,0,0,0-2.68,1.61v2.71a4.16,4.16,0,0,0,1.22,1.73A2.58,2.58,0,0,0,140,29.61Z"/><polyline class="cls-1" points="41.94 30.38 41.94 40.61 31.46 40.61"/><ellipse class="cls-1" cx="22.91" cy="23.13" rx="21.88" ry="21.73"/><ellipse class="cls-5" cx="22.17" cy="22.54" rx="21.14" ry="21.13"/><polyline class="cls-2" points="40.36 29.95 40.36 39.24 31.06 39.24"/><circle class="cls-4" cx="22.17" cy="22.54" r="18.11"/><polygon class="cls-6" points="16.83 18.57 11.46 13.97 0.89 26.32 8.4 28.42 16.83 18.57"/><polygon class="cls-6" points="0.79 27.15 2.1 35.78 7.79 29.13 0.79 27.15"/><polygon class="cls-6" points="32.13 0.7 23.4 0.75 26.43 7.36 32.13 0.7"/><polygon class="cls-6" points="25.83 8.06 22.59 0.97 12.02 13.31 17.4 17.91 25.83 8.06"/><polygon class="cls-6" points="2.59 36.25 35.2 36.85 8.5 29.34 2.59 36.25"/><polygon class="cls-6" points="26.74 8.04 38.29 33.25 32.65 1.13 26.74 8.04"/><polygon class="cls-6" points="9.11 28.62 38.13 36.81 17.34 19.01 9.11 28.62"/><polygon class="cls-6" points="17.91 18.35 38.7 36.15 26.14 8.74 17.91 18.35"/></g></g></svg>