<svg xmlns="http://www.w3.org/2000/svg" viewBox="0 0 112.56 29.36"><defs><style>.cls-1{fill:#494949;}.cls-2,.cls-3{fill:#7c5ead;}.cls-3{stroke:#fff;stroke-miterlimit:10;stroke-width:0.5px;}</style></defs><title>Fichier 3</title><g id="Calque_2" data-name="Calque 2"><g id="Calque_1-2" data-name="Calque 1"><path class="cls-1" d="M40.41,21.52A8.24,8.24,0,0,1,37.34,21a6.59,6.59,0,0,1-2.25-1.46A6.34,6.34,0,0,1,33.7,17.4a6.71,6.71,0,0,1-.47-2.52,7.82,7.82,0,0,1,.46-2.7A6.19,6.19,0,0,1,35.06,10a6.65,6.65,0,0,1,2.25-1.51,8.86,8.86,0,0,1,6.2,0A6.57,6.57,0,0,1,45.77,10a6.3,6.3,0,0,1,1.37,2.17,7.23,7.23,0,0,1,.46,2.58,6.45,6.45,0,0,1,0,.76c0,.26-.05.49-.08.69H38.27A1.83,1.83,0,0,0,39,17.66a2.69,2.69,0,0,0,1.52.46A3.18,3.18,0,0,0,42,17.77a1.75,1.75,0,0,0,.91-1L47,18a6.37,6.37,0,0,1-2.46,2.57A7.81,7.81,0,0,1,40.41,21.52Zm2.1-8.22a2.4,2.4,0,0,0-.7-1.49,2.24,2.24,0,0,0-2.94,0,2.35,2.35,0,0,0-.7,1.49Z"/><path class="cls-1" d="M54.56,21.52A10.28,10.28,0,0,1,51.19,21a7.65,7.65,0,0,1-2.79-1.63L50,16.47a12.58,12.58,0,0,0,2.36,1.28,5.71,5.71,0,0,0,2.08.45c.67,0,1-.21,1-.63a.73.73,0,0,0-.38-.6,7.32,7.32,0,0,0-1.51-.57,22.5,22.5,0,0,1-2.34-.79,6.48,6.48,0,0,1-1.52-.83,2.78,2.78,0,0,1-.84-1,3.24,3.24,0,0,1-.25-1.3,4.42,4.42,0,0,1,.4-1.85,4.68,4.68,0,0,1,1.11-1.47,5.22,5.22,0,0,1,1.7-1A6.79,6.79,0,0,1,54,7.86a10.05,10.05,0,0,1,2.76.38,7.1,7.1,0,0,1,2.63,1.52l-1.8,2.85a11.79,11.79,0,0,0-2-1.14A4.22,4.22,0,0,0,54,11.13a1.34,1.34,0,0,0-.7.17.54.54,0,0,0-.27.51.69.69,0,0,0,.4.61A6.32,6.32,0,0,0,55,13a18.05,18.05,0,0,1,2.39.79,6.55,6.55,0,0,1,1.56.9,2.82,2.82,0,0,1,.84,1.1A3.66,3.66,0,0,1,60,17.15,4.38,4.38,0,0,1,59.66,19a3.9,3.9,0,0,1-1.09,1.37,4.82,4.82,0,0,1-1.72.88A8.09,8.09,0,0,1,54.56,21.52Z"/><path class="cls-1" d="M60.93,14.7a7.24,7.24,0,0,1,.47-2.58A6.35,6.35,0,0,1,62.79,10a6.48,6.48,0,0,1,2.26-1.5,8,8,0,0,1,3.09-.56,7.46,7.46,0,0,1,4,1,6.36,6.36,0,0,1,2.4,2.57l-4.61,1.4a2.11,2.11,0,0,0-1.82-1,2.16,2.16,0,0,0-1.65.74,3,3,0,0,0-.68,2.08,3,3,0,0,0,.68,2.09,2.15,2.15,0,0,0,1.65.73,2.11,2.11,0,0,0,1.82-1L74.55,18a6.49,6.49,0,0,1-2.4,2.57,7.55,7.55,0,0,1-4,1A7.85,7.85,0,0,1,65.05,21a6.6,6.6,0,0,1-2.26-1.49,6.45,6.45,0,0,1-1.39-2.17A7.33,7.33,0,0,1,60.93,14.7Z"/><path class="cls-2" d="M79.92,21.52a5,5,0,0,1-1.82-.33,4.47,4.47,0,0,1-1.46-.89,4.11,4.11,0,0,1-.89-4.82,4.5,4.5,0,0,1,1.18-1.43,5.36,5.36,0,0,1,1.78-.92A7.48,7.48,0,0,1,81,12.81a6.21,6.21,0,0,1,2.65.49v-.4a1.69,1.69,0,0,0-.54-1.37,2.68,2.68,0,0,0-1.73-.45,5.77,5.77,0,0,0-2.07.36,10.35,10.35,0,0,0-2,1.07L75.93,9.56a10.71,10.71,0,0,1,5.91-1.67,7.37,7.37,0,0,1,4.84,1.4,5.09,5.09,0,0,1,1.7,4.19V16a1.64,1.64,0,0,0,.2.94.92.92,0,0,0,.7.31v4c-.38.08-.75.14-1.09.18a8,8,0,0,1-.91.07,3.33,3.33,0,0,1-1.93-.47,2.12,2.12,0,0,1-.86-1.36l-.1-.47a6,6,0,0,1-2,1.71A5.33,5.33,0,0,1,79.92,21.52Zm1.42-3.4a2.74,2.74,0,0,0,.88-.14,3.25,3.25,0,0,0,.8-.36,2,2,0,0,0,.44-.43.82.82,0,0,0,.18-.49v-1a5.86,5.86,0,0,0-.92-.25,4.49,4.49,0,0,0-.9-.1,2.37,2.37,0,0,0-1.45.42,1.28,1.28,0,0,0-.57,1.07,1.09,1.09,0,0,0,.43.9A1.73,1.73,0,0,0,81.34,18.12Z"/><path class="cls-2" d="M91,7v-4h4.74V7Zm0,14.23V8.14h4.74V21.27Z"/><path class="cls-2" d="M107,21.52A5.12,5.12,0,0,1,104.5,21a3.86,3.86,0,0,1-1.62-1.63v7.26H98.14V8.14h4.12v2A4.92,4.92,0,0,1,104,8.46a5.1,5.1,0,0,1,2.52-.57,5.8,5.8,0,0,1,2.42.51,5.63,5.63,0,0,1,1.92,1.41A6.71,6.71,0,0,1,112.1,12a7.64,7.64,0,0,1,.46,2.69,8.54,8.54,0,0,1-.42,2.73A6.85,6.85,0,0,1,111,19.57,5.34,5.34,0,0,1,109.19,21,4.9,4.9,0,0,1,107,21.52Zm-1.64-4a2.05,2.05,0,0,0,1-.22,2.26,2.26,0,0,0,.75-.63,3.51,3.51,0,0,0,.5-.92,3.42,3.42,0,0,0,.18-1.12,2.77,2.77,0,0,0-.71-2,2.46,2.46,0,0,0-1.88-.75,2.68,2.68,0,0,0-2.25,1.35V15.5a3.61,3.61,0,0,0,1,1.45A2.19,2.19,0,0,0,105.33,17.52Z"/><circle class="cls-2" cx="15.47" cy="15.41" r="13.95"/><polygon class="cls-3" points="12.1 13.33 8.17 9.97 0.45 18.99 5.93 20.53 12.1 13.33"/><polygon class="cls-3" points="0.38 19.6 1.33 25.91 5.49 21.05 0.38 19.6"/><polygon class="cls-3" points="23.28 0.27 16.9 0.3 19.12 5.13 23.28 0.27"/><polygon class="cls-3" points="18.68 5.65 16.31 0.46 8.58 9.48 12.51 12.85 18.68 5.65"/><polygon class="cls-3" points="1.69 26.25 25.53 26.7 6.01 21.2 1.69 26.25"/><polygon class="cls-3" points="19.34 5.63 27.79 24.06 23.66 0.58 19.34 5.63"/><polygon class="cls-3" points="6.46 20.68 27.67 26.66 12.47 13.65 6.46 20.68"/><polygon class="cls-3" points="12.89 13.17 28.09 26.18 18.9 6.14 12.89 13.17"/></g></g></svg>