<svg xmlns="http://www.w3.org/2000/svg" viewBox="0 0 110.02 24.13"><defs><style>.cls-1{fill:#494949;}.cls-2,.cls-3{fill:#7c5ead;}.cls-3{stroke:#fff;stroke-miterlimit:10;stroke-width:0.75px;}</style></defs><title>Fichier 4</title><g id="Calque_2" data-name="Calque 2"><g id="Calque_1-2" data-name="Calque 1"><path class="cls-1" d="M37.87,19.06a8.24,8.24,0,0,1-3.07-.53,6.59,6.59,0,0,1-2.25-1.46A6.34,6.34,0,0,1,31.16,15a6.71,6.71,0,0,1-.47-2.52,7.82,7.82,0,0,1,.46-2.7,6.19,6.19,0,0,1,1.37-2.22A6.65,6.65,0,0,1,34.77,6,8.86,8.86,0,0,1,41,6a6.57,6.57,0,0,1,2.26,1.5A6.21,6.21,0,0,1,44.6,9.67a7.23,7.23,0,0,1,.46,2.58A6.56,6.56,0,0,1,45,13c0,.26-.05.49-.08.69H35.73a1.86,1.86,0,0,0,.77,1.51,2.69,2.69,0,0,0,1.52.46,3.18,3.18,0,0,0,1.46-.35,1.75,1.75,0,0,0,.91-1l4,1.15A6.37,6.37,0,0,1,42,18.07,7.8,7.8,0,0,1,37.87,19.06ZM40,10.85a2.4,2.4,0,0,0-.7-1.49,2.24,2.24,0,0,0-2.94,0,2.35,2.35,0,0,0-.7,1.49Z"/><path class="cls-1" d="M52,19.06a10.17,10.17,0,0,1-3.36-.56,7.61,7.61,0,0,1-2.8-1.63L47.48,14a12.58,12.58,0,0,0,2.36,1.28,5.71,5.71,0,0,0,2.08.45c.67,0,1-.21,1-.63a.73.73,0,0,0-.38-.6A6.77,6.77,0,0,0,51,14a22.5,22.5,0,0,1-2.34-.79,6.86,6.86,0,0,1-1.52-.83,2.78,2.78,0,0,1-.84-1,3.24,3.24,0,0,1-.25-1.3,4.39,4.39,0,0,1,.4-1.85,4.68,4.68,0,0,1,1.11-1.47,4.88,4.88,0,0,1,1.7-1,6.79,6.79,0,0,1,2.16-.34,10.05,10.05,0,0,1,2.76.38,7,7,0,0,1,2.63,1.52L55,10.15A12.33,12.33,0,0,0,53,9a4,4,0,0,0-1.55-.34,1.45,1.45,0,0,0-.7.16.56.56,0,0,0-.27.52.69.69,0,0,0,.4.61,6.78,6.78,0,0,0,1.57.53,18.05,18.05,0,0,1,2.39.79,5.94,5.94,0,0,1,1.56.9,2.82,2.82,0,0,1,.84,1.1,3.59,3.59,0,0,1,.25,1.41,4.23,4.23,0,0,1-.37,1.82A3.9,3.9,0,0,1,56,17.89a5,5,0,0,1-1.72.88A8.48,8.48,0,0,1,52,19.06Z"/><path class="cls-1" d="M58.39,12.25a7.24,7.24,0,0,1,.47-2.58A6.26,6.26,0,0,1,60.25,7.5,6.48,6.48,0,0,1,62.51,6a7.85,7.85,0,0,1,3.09-.56,7.46,7.46,0,0,1,4,1A6.45,6.45,0,0,1,72,9L67.4,10.4a2.13,2.13,0,0,0-1.82-1,2.16,2.16,0,0,0-1.65.74,3,3,0,0,0-.68,2.08,3,3,0,0,0,.68,2.08,2.13,2.13,0,0,0,1.65.74,2.11,2.11,0,0,0,1.82-1L72,15.5a6.59,6.59,0,0,1-2.41,2.57,7.54,7.54,0,0,1-4,1,7.85,7.85,0,0,1-3.09-.56A6.6,6.6,0,0,1,60.25,17a6.4,6.4,0,0,1-1.39-2.18A7.24,7.24,0,0,1,58.39,12.25Z"/><path class="cls-2" d="M77.38,19.06a4.94,4.94,0,0,1-1.82-.32,4.47,4.47,0,0,1-1.46-.89,4,4,0,0,1-1-1.33,3.91,3.91,0,0,1-.35-1.67A4,4,0,0,1,73.21,13a4.57,4.57,0,0,1,1.18-1.42,5.46,5.46,0,0,1,1.78-.92,7.48,7.48,0,0,1,2.28-.33,6.2,6.2,0,0,1,2.65.5v-.4a1.69,1.69,0,0,0-.54-1.37,2.66,2.66,0,0,0-1.73-.45A5.77,5.77,0,0,0,76.76,9a10.85,10.85,0,0,0-2,1.06L73.39,7.11A10.71,10.71,0,0,1,79.3,5.44a7.37,7.37,0,0,1,4.84,1.4A5.08,5.08,0,0,1,85.84,11v2.54a1.66,1.66,0,0,0,.2.94,1,1,0,0,0,.7.31v4a9.25,9.25,0,0,1-1.09.19,7.83,7.83,0,0,1-.91.06,3.33,3.33,0,0,1-1.93-.46A2.15,2.15,0,0,1,82,17.24l-.1-.47a6,6,0,0,1-2,1.71A5.32,5.32,0,0,1,77.38,19.06Zm1.42-3.39a3,3,0,0,0,.88-.14,3.25,3.25,0,0,0,.8-.36,1.84,1.84,0,0,0,.44-.44.78.78,0,0,0,.18-.48v-1a7.2,7.2,0,0,0-.92-.25,5.36,5.36,0,0,0-.9-.1,2.38,2.38,0,0,0-1.45.43,1.28,1.28,0,0,0-.57,1.07,1.09,1.09,0,0,0,.43.9A1.73,1.73,0,0,0,78.8,15.67Z"/><path class="cls-2" d="M88.46,4.59V.6H93.2v4Zm0,14.22V5.69H93.2V18.81Z"/><path class="cls-2" d="M104.43,19.06A5.12,5.12,0,0,1,102,18.5a3.86,3.86,0,0,1-1.62-1.63v7.26H95.6V5.69h4.12v2A4.83,4.83,0,0,1,101.44,6,5.1,5.1,0,0,1,104,5.44a5.77,5.77,0,0,1,2.42.51,5.63,5.63,0,0,1,1.92,1.41,6.71,6.71,0,0,1,1.26,2.15A7.64,7.64,0,0,1,110,12.2a8.58,8.58,0,0,1-.42,2.73,7,7,0,0,1-1.17,2.19,5.4,5.4,0,0,1-1.77,1.43A5,5,0,0,1,104.43,19.06Zm-1.64-4a2.05,2.05,0,0,0,1-.22,2.26,2.26,0,0,0,.75-.63,3.51,3.51,0,0,0,.5-.92,3.42,3.42,0,0,0,.18-1.12,2.75,2.75,0,0,0-.71-2,2.46,2.46,0,0,0-1.88-.75,2.69,2.69,0,0,0-2.25,1.35v2.27a3.68,3.68,0,0,0,1,1.45A2.19,2.19,0,0,0,102.79,15.07Z"/><circle class="cls-2" cx="12.82" cy="12.85" r="11.28"/><polygon class="cls-3" points="10.09 11.16 6.92 8.44 0.67 15.74 5.11 16.99 10.09 11.16"/><polygon class="cls-3" points="0.61 16.24 1.38 21.34 4.75 17.4 0.61 16.24"/><polygon class="cls-3" points="19.14 0.6 13.98 0.62 15.77 4.53 19.14 0.6"/><polygon class="cls-3" points="15.41 4.95 13.5 0.75 7.25 8.05 10.43 10.77 15.41 4.95"/><polygon class="cls-3" points="1.67 21.61 20.96 21.97 5.17 17.53 1.67 21.61"/><polygon class="cls-3" points="15.95 4.93 22.78 19.84 19.45 0.85 15.95 4.93"/><polygon class="cls-3" points="5.53 17.11 22.69 21.95 10.4 11.42 5.53 17.11"/><polygon class="cls-3" points="10.73 11.03 23.02 21.56 15.6 5.35 10.73 11.03"/></g></g></svg>