<svg xmlns="http://www.w3.org/2000/svg" viewBox="0 0 373.37 373.75"><defs><style>.cls-1{opacity:0.19;}.cls-2,.cls-3{fill:#7c5ead;}.cls-3{stroke:#fff;stroke-miterlimit:10;stroke-width:11px;}</style></defs><title>Fichier 9</title><g id="Calque_2" data-name="Calque 2"><g id="Calque_1-2" data-name="Calque 1"><g class="cls-1"><circle class="cls-2" cx="174.92" cy="198.15" r="174.92"/><polygon class="cls-3" points="201.01 155.9 243.19 106.64 130.05 9.78 110.72 78.6 201.01 155.9"/><polygon class="cls-3" points="122.38 8.9 43.28 20.86 104.28 73.09 122.38 8.9"/><polygon class="cls-3" points="364.83 296.15 364.46 216.15 303.83 243.92 364.83 296.15"/><polygon class="cls-3" points="297.38 238.41 362.41 208.7 249.26 111.84 207.09 161.11 297.38 238.41"/><polygon class="cls-3" points="39.02 25.34 33.45 324.33 102.33 79.55 39.02 25.34"/><polygon class="cls-3" points="297.63 246.74 66.5 352.63 360.94 300.94 297.63 246.74"/><polygon class="cls-3" points="108.89 85.17 33.84 351.17 197 160.59 108.89 85.17"/><polygon class="cls-3" points="203.07 165.8 39.92 356.38 291.18 241.23 203.07 165.8"/></g></g></g></svg>