<svg width="26" height="30" viewBox="0 0 26 30" fill="none" xmlns="http://www.w3.org/2000/svg">
<path d="M12.75 29.95C13.5456 29.95 14.3087 29.6339 14.8713 29.0713C15.4339 28.5087 15.75 27.7456 15.75 26.95H9.75C9.75 27.7456 10.0661 28.5087 10.6287 29.0713C11.1913 29.6339 11.9544 29.95 12.75 29.95ZM22.5 20.95V12.7C22.5097 10.507 21.7721 8.3762 20.4088 6.65847C19.0456 4.94073 17.1379 3.73857 15 3.25V2.25C15 1.65326 14.7629 1.08097 14.341 0.65901C13.919 0.237053 13.3467 0 12.75 0C12.1533 0 11.581 0.237053 11.159 0.65901C10.7371 1.08097 10.5 1.65326 10.5 2.25V3.25C8.36214 3.73857 6.45445 4.94073 5.09117 6.65847C3.72789 8.3762 2.99033 10.507 3 12.7V20.95L0 23.95V25.45H25.5V23.95L22.5 20.95Z" fill="#5B5B5B"/>
</svg>
