<svg width="42" height="32" viewBox="0 0 42 32" fill="none" xmlns="http://www.w3.org/2000/svg">
<path d="M6.29001 0C6.10323 0.00238095 5.91876 0.0415877 5.74717 0.115374C5.57557 0.189161 5.42022 0.296078 5.29001 0.43C5.02032 0.694429 4.86276 1.05252 4.85001 1.43V23.54C4.85512 23.9239 5.00922 24.2908 5.27977 24.5632C5.55032 24.8356 5.91615 24.9923 6.30001 25C9.72001 25 15.46 25.73 19.42 29.87V6.78C19.423 6.5196 19.3537 6.26346 19.22 6.04C16 0.8 9.73001 0 6.29001 0Z" fill="#4D4D4D"/>
<path d="M36.31 23.54V1.46998C36.2973 1.0925 36.1397 0.734407 35.87 0.469978C35.7398 0.336056 35.5844 0.229139 35.4128 0.155352C35.2412 0.0815657 35.0568 0.042359 34.87 0.039978C31.44 0.039978 25.19 0.839978 21.94 6.03998C21.8063 6.26344 21.7371 6.51958 21.74 6.77998V29.88C25.74 25.74 31.44 25.02 34.86 25.01C35.2464 25.0047 35.6152 24.8475 35.8865 24.5724C36.1579 24.2973 36.31 23.9264 36.31 23.54Z" fill="#4D4D4D"/>
<path d="M39.66 5.09003H38.59V23.54C38.5874 24.5347 38.1918 25.488 37.4894 26.1923C36.7869 26.8966 35.8347 27.2948 34.84 27.3C31.93 27.3 27.14 27.87 23.75 31.09C29.62 29.65 35.75 30.58 39.33 31.39C39.5418 31.4371 39.7614 31.437 39.9732 31.3898C40.185 31.3425 40.3838 31.2493 40.5556 31.1166C40.7273 30.984 40.8678 30.8152 40.9671 30.6223C41.0664 30.4293 41.122 30.2169 41.13 30V6.56003C41.13 6.17016 40.9751 5.79626 40.6994 5.52058C40.4238 5.2449 40.0499 5.09003 39.66 5.09003Z" fill="#4D4D4D"/>
<path d="M2.54 23.54V5.09003H1.47C1.08013 5.09003 0.706231 5.2449 0.430553 5.52058C0.154875 5.79626 0 6.17016 0 6.56003L0 30C0.00680554 30.2122 0.0594923 30.4204 0.154437 30.6103C0.249381 30.8002 0.384329 30.9673 0.55 31.1C0.723587 31.2384 0.925912 31.3363 1.14218 31.3865C1.35845 31.4367 1.5832 31.4379 1.8 31.39C5.33 30.58 11.51 29.65 17.38 31.09C14 27.87 9.2 27.31 6.29 27.3C5.29533 27.2948 4.34306 26.8966 3.64065 26.1923C2.93824 25.488 2.54262 24.5347 2.54 23.54Z" fill="#4D4D4D"/>
</svg>
