<svg width="38" height="31" viewBox="0 0 38 31" fill="none" xmlns="http://www.w3.org/2000/svg">
<path d="M21.1854 22.5695C20.4532 22.9888 19.6241 23.2094 18.7804 23.2094C17.9366 23.2094 17.1076 22.9888 16.3754 22.5695L5.46535 15.8795C5.46535 15.8795 4.46535 15.2795 4.46535 16.6495V23.3195C4.46535 26.8395 10.8654 30.6395 18.7654 30.6395C26.6654 30.6395 33.0554 26.8395 33.0554 23.3195V16.3195C33.0554 15.2195 32.3554 15.7595 32.3554 15.7595L21.1854 22.5695Z" fill="#4D4D4D"/>
<path d="M36.9154 10.5595C37.1051 10.4876 37.2684 10.3596 37.3837 10.1926C37.499 10.0256 37.5607 9.82744 37.5607 9.62452C37.5607 9.4216 37.499 9.22348 37.3837 9.05647C37.2684 8.88947 37.1051 8.76149 36.9154 8.68952L20.3054 0.389521C19.8377 0.133943 19.3133 0 18.7804 0C18.2474 0 17.723 0.133943 17.2554 0.389521L0.645352 8.68952C0.45562 8.76149 0.292272 8.88947 0.177003 9.05647C0.0617342 9.22348 0 9.4216 0 9.62452C0 9.82744 0.0617342 10.0256 0.177003 10.1926C0.292272 10.3596 0.45562 10.4876 0.645352 10.5595L17.2554 20.7495C17.723 21.0051 18.2474 21.139 18.7804 21.139C19.3133 21.139 19.8377 21.0051 20.3054 20.7495" fill="#4D4D4D"/>
<path d="M36.2354 25.6595V14.4096C36.2354 14.4096 36.2354 13.8796 35.9254 14.0496C35.5446 14.2526 35.1772 14.4797 34.8254 14.7295C34.5754 14.9495 34.6354 15.4496 34.6354 15.4496V25.6595C34.631 25.7151 34.6108 25.7682 34.5771 25.8125C34.5434 25.8568 34.4977 25.8905 34.4454 25.9095C34.0641 26.1297 33.7661 26.4695 33.5976 26.8762C33.4291 27.283 33.3996 27.734 33.5135 28.1592C33.6275 28.5845 33.8785 28.9603 34.2278 29.2283C34.5771 29.4963 35.0051 29.6416 35.4454 29.6416C35.8856 29.6416 36.3136 29.4963 36.6629 29.2283C37.0122 28.9603 37.2633 28.5845 37.3772 28.1592C37.4912 27.734 37.4616 27.283 37.2931 26.8762C37.1246 26.4695 36.8266 26.1297 36.4454 25.9095C36.3893 25.8938 36.3393 25.8615 36.3018 25.8169C36.2644 25.7723 36.2412 25.7175 36.2354 25.6595Z" fill="#4D4D4D"/>
</svg>
